<?xml version="1.0" standalone="no"?>
<!DOCTYPE svg PUBLIC "-//W3C//DTD SVG 20010904//EN"
 "http://www.w3.org/TR/2001/REC-SVG-20010904/DTD/svg10.dtd">
<svg version="1.0" xmlns="http://www.w3.org/2000/svg"
 width="16.000000pt" height="16.000000pt" viewBox="0 0 16.000000 16.000000"
 preserveAspectRatio="xMidYMid meet">
<metadata>
Created by potrace 1.11, written by Peter Selinger 2001-2013
</metadata>
<g transform="translate(0.000000,16.000000) scale(0.001097,-0.001097)"
fill="#000000" stroke="none">
<path d="M6225 14452 c0 -64 -3 -123 -8 -129 -6 -8 -6 -13 0 -13 12 0 11 -49
0 -67 -5 -7 -4 -13 0 -13 11 0 10 -211 -1 -228 -4 -7 -3 -12 2 -12 11 0 10
-50 -1 -67 -5 -7 -4 -13 0 -13 11 0 10 -211 -1 -228 -4 -7 -3 -12 2 -12 11 0
10 -50 -1 -67 -5 -7 -4 -13 0 -13 11 0 10 -211 -1 -228 -4 -7 -3 -12 1 -12 10
0 9 -212 -1 -228 -4 -7 -3 -12 1 -12 11 0 10 -211 -1 -228 -4 -7 -4 -12 1 -12
4 0 8 -120 7 -267 0 -148 1 -273 3 -278 5 -14 163 -13 164 0 0 6 5 15 10 22 7
7 6 14 -1 18 -8 5 -8 11 1 21 9 11 9 14 0 14 -8 0 -9 6 -2 18 6 11 6 24 0 35
-7 12 -6 17 2 17 8 0 9 4 0 13 -8 10 -7 17 1 25 9 9 9 12 0 12 -9 0 -10 5 -3
18 6 11 6 24 0 35 -7 12 -6 17 2 17 8 0 9 4 0 13 -8 10 -7 17 1 25 9 9 9 12 0
12 -9 0 -10 5 -3 18 6 11 6 24 0 35 -7 12 -6 17 2 17 8 0 9 4 0 13 -8 10 -7
17 1 25 9 9 9 12 0 12 -9 0 -10 5 -3 18 6 11 6 24 0 35 -7 12 -6 17 2 17 8 0
9 4 0 13 -8 10 -7 17 1 25 9 9 9 12 0 12 -9 0 -10 5 -3 18 6 11 6 24 0 35 -7
12 -6 17 2 17 8 0 9 4 0 13 -8 10 -7 17 1 25 9 9 9 12 0 12 -9 0 -10 5 -3 18
6 11 6 24 0 35 -7 12 -6 17 2 17 8 0 9 4 0 13 -8 10 -7 17 1 25 9 9 9 12 0 12
-9 0 -10 5 -3 18 6 11 6 24 0 35 -7 12 -6 17 1 17 6 0 8 5 4 12 -11 18 -12 48
-2 48 5 0 6 5 2 12 -11 17 -11 58 -1 58 4 0 3 9 -3 20 -8 14 -8 20 0 20 8 0 8
6 0 20 -8 14 -8 20 0 20 8 0 8 6 0 20 -8 14 -8 20 0 20 8 0 8 6 0 20 -8 14 -8
20 0 20 8 0 8 6 0 20 -8 14 -8 20 0 20 8 0 8 6 0 20 -8 14 -8 20 0 20 8 0 8 6
0 20 -8 14 -8 20 0 20 7 0 8 6 1 19 -6 10 -8 21 -4 24 8 9 10 109 1 135 -4 13
-3 22 3 22 6 0 6 7 -1 20 -8 14 -8 20 0 20 8 0 8 6 0 20 -8 14 -8 20 0 20 8 0
8 6 0 20 -8 14 -8 20 0 20 8 0 8 6 0 20 -8 14 -8 20 0 20 7 0 8 6 2 16 -8 15
-5 54 4 54 6 0 44 -39 44 -45 0 -5 22 -33 58 -73 12 -14 22 -31 22 -39 0 -8 5
-11 10 -8 6 3 10 -1 10 -9 0 -9 5 -16 10 -16 6 0 10 -5 10 -11 0 -5 13 -24 30
-42 16 -18 30 -35 30 -39 0 -5 8 -17 18 -27 9 -11 22 -26 27 -33 6 -7 31 -41
58 -75 26 -34 47 -64 47 -67 0 -3 8 -14 18 -24 26 -28 61 -74 80 -104 9 -16
20 -28 24 -28 4 0 8 -7 8 -15 0 -8 9 -19 20 -25 11 -6 20 -15 20 -21 0 -6 6
-16 13 -23 29 -30 62 -80 59 -90 -2 -6 0 -8 4 -4 10 11 57 -60 51 -76 -3 -8 0
-19 6 -25 7 -7 7 -11 1 -11 -6 0 -11 -7 -11 -15 0 -8 5 -15 10 -15 5 0 5 -6
-2 -13 -8 -10 -7 -17 1 -25 7 -7 8 -12 2 -12 -6 0 -11 -7 -11 -15 0 -8 5 -15
10 -15 5 0 5 -6 -2 -13 -8 -10 -7 -17 1 -25 7 -7 8 -12 2 -12 -6 0 -11 -7 -11
-15 0 -8 5 -15 10 -15 5 0 5 -6 -2 -13 -8 -10 -7 -17 1 -25 7 -7 8 -12 2 -12
-6 0 -11 -7 -11 -15 0 -8 5 -15 10 -15 5 0 5 -6 -2 -13 -8 -10 -7 -17 1 -25 7
-7 8 -12 2 -12 -6 0 -11 -7 -11 -15 0 -8 5 -15 10 -15 5 0 5 -6 -2 -13 -8 -10
-7 -17 1 -25 7 -7 8 -12 2 -12 -6 0 -11 -7 -11 -15 0 -8 4 -15 9 -15 5 0 6 -4
3 -10 -10 -17 -14 -50 -6 -50 6 0 7 -40 1 -47 -7 -8 -5 -30 3 -40 6 -8 6 -13
0 -13 -5 0 -9 -9 -9 -20 0 -11 4 -20 8 -20 4 0 8 -5 8 -11 0 -5 -3 -8 -7 -6
-5 3 -8 -15 -8 -39 0 -24 2 -44 5 -44 4 0 6 -12 6 -27 l-1 -28 75 0 c41 -1 80
1 85 2 7 2 10 107 10 298 0 162 1 295 3 295 6 0 27 -24 52 -60 13 -19 35 -46
47 -60 13 -14 26 -33 29 -43 3 -9 10 -15 15 -12 5 4 9 0 9 -8 0 -7 8 -22 18
-33 9 -10 37 -46 61 -79 25 -33 48 -61 53 -63 4 -2 8 -8 8 -13 0 -8 20 -35 48
-64 6 -8 12 -16 12 -19 0 -3 8 -15 18 -25 22 -25 32 -38 62 -81 13 -19 30 -41
37 -48 7 -7 20 -26 30 -42 9 -17 21 -30 26 -30 4 0 5 -4 2 -10 -3 -5 -2 -10 4
-10 5 0 31 -30 57 -67 27 -38 65 -89 87 -115 21 -27 36 -48 33 -48 -3 0 11
-17 29 -37 19 -21 35 -43 35 -48 0 -6 9 -16 20 -23 11 -7 20 -19 20 -26 0 -8
4 -16 8 -18 4 -1 30 -32 57 -68 27 -36 54 -68 60 -72 5 -4 6 -8 1 -8 -5 0 1
-8 12 -19 12 -10 22 -23 22 -30 0 -6 4 -11 8 -11 4 0 15 -12 24 -27 10 -16 27
-40 40 -55 13 -14 30 -36 38 -48 8 -12 21 -28 28 -36 6 -7 12 -15 12 -18 0 -3
8 -14 18 -24 9 -10 24 -29 32 -41 8 -13 27 -37 42 -55 15 -17 28 -34 28 -37 0
-3 8 -15 18 -27 46 -55 52 -63 52 -73 0 -5 5 -7 10 -4 6 3 10 0 10 -7 0 -7 11
-26 25 -43 13 -16 28 -34 32 -40 5 -5 23 -29 41 -52 19 -24 31 -43 28 -43 -3
0 5 -10 17 -23 12 -12 33 -38 47 -56 14 -19 31 -40 38 -47 6 -7 12 -17 12 -23
0 -6 5 -11 10 -11 6 0 10 -5 10 -10 0 -6 9 -21 20 -33 12 -12 46 -56 78 -97
31 -41 61 -78 67 -82 5 -4 6 -8 2 -8 -5 0 -2 -6 5 -13 14 -14 36 -42 96 -122
20 -27 40 -51 45 -53 4 -2 7 -10 7 -18 0 -9 5 -12 10 -9 6 3 10 0 10 -8 0 -7
8 -22 18 -33 9 -10 37 -46 62 -79 59 -78 54 -72 103 -135 23 -30 45 -56 49
-58 5 -2 8 -8 8 -13 0 -6 11 -22 24 -36 14 -15 23 -30 21 -34 -3 -4 1 -9 8
-12 7 -3 26 -24 42 -48 17 -24 38 -51 47 -60 10 -9 18 -20 18 -25 0 -5 9 -16
19 -24 11 -7 18 -17 15 -22 -3 -4 2 -11 10 -14 9 -3 16 -12 16 -20 0 -8 5 -14
10 -14 6 0 10 -4 10 -10 0 -5 8 -18 18 -28 36 -38 62 -72 54 -72 -4 0 -2 -4 3
-8 14 -10 85 -99 85 -106 0 -4 14 -20 30 -38 17 -17 30 -37 30 -45 0 -8 5 -11
10 -8 6 3 10 -1 10 -9 0 -9 5 -16 10 -16 6 0 10 -4 10 -10 0 -10 10 -24 64
-86 15 -19 26 -34 22 -34 -3 0 5 -11 17 -24 40 -43 66 -76 59 -76 -4 0 -2 -4
3 -8 6 -4 26 -28 45 -55 19 -26 45 -58 57 -72 12 -13 30 -38 39 -55 10 -16 22
-30 26 -30 4 0 8 -6 8 -13 0 -7 9 -18 20 -25 12 -7 18 -17 15 -22 -3 -6 -2
-10 4 -10 5 0 20 -17 32 -37 13 -21 36 -50 51 -65 16 -15 28 -32 28 -38 0 -6
11 -21 25 -34 14 -13 25 -28 25 -34 0 -5 7 -12 15 -16 8 -3 15 -12 15 -20 0
-8 3 -16 8 -18 9 -4 82 -94 82 -102 0 -3 8 -15 18 -25 9 -11 22 -26 27 -33 6
-7 30 -40 55 -73 25 -33 48 -61 53 -63 4 -2 7 -9 7 -14 0 -6 7 -18 15 -27 9
-9 29 -34 46 -56 16 -22 41 -53 54 -70 13 -16 23 -32 22 -35 -1 -3 10 -17 23
-32 39 -41 51 -58 44 -58 -4 0 2 -8 12 -17 11 -10 35 -40 54 -66 19 -26 47
-62 62 -80 15 -18 28 -35 28 -39 0 -5 8 -16 18 -26 29 -31 62 -72 62 -77 0 -7
19 -31 43 -53 9 -9 17 -22 17 -29 0 -7 3 -13 8 -13 4 0 18 -17 32 -37 28 -42
43 -61 84 -109 15 -19 26 -34 22 -34 -3 0 5 -11 17 -24 26 -29 35 -40 67 -86
14 -19 31 -41 38 -49 8 -8 10 -17 5 -20 -4 -3 -37 -44 -73 -91 -35 -47 -68
-86 -72 -88 -4 -2 -8 -9 -8 -14 0 -6 -7 -18 -15 -27 -9 -9 -29 -34 -45 -56
-37 -49 -60 -79 -97 -127 -15 -20 -37 -48 -48 -64 -11 -15 -26 -33 -32 -40 -7
-7 -13 -17 -13 -22 0 -6 -4 -12 -8 -14 -5 -1 -28 -30 -53 -63 -24 -33 -48 -65
-54 -71 -5 -7 -19 -24 -30 -40 -11 -15 -30 -40 -42 -55 -13 -15 -23 -30 -23
-34 0 -7 -13 -22 -62 -76 -10 -10 -18 -22 -18 -27 0 -4 -14 -22 -30 -40 -17
-18 -30 -36 -30 -39 0 -3 -16 -25 -35 -49 -19 -23 -35 -47 -35 -54 0 -6 -4 -8
-10 -5 -5 3 -10 -1 -10 -9 0 -9 -4 -16 -9 -16 -5 0 -12 -8 -15 -17 -3 -10 -19
-32 -36 -50 -16 -18 -30 -34 -30 -37 0 -5 -18 -28 -45 -60 -5 -6 -23 -30 -39
-53 -16 -24 -33 -43 -37 -43 -5 0 -9 -7 -9 -15 0 -9 -7 -18 -15 -21 -8 -4 -15
-13 -15 -20 0 -8 -7 -17 -15 -20 -8 -4 -15 -12 -15 -19 0 -7 -7 -16 -16 -19
-8 -3 -13 -10 -10 -15 3 -5 -1 -11 -9 -15 -8 -3 -15 -11 -15 -18 0 -7 -9 -19
-21 -26 -12 -7 -19 -16 -16 -19 3 -3 -5 -15 -19 -28 -13 -12 -24 -27 -24 -32
0 -5 -11 -20 -25 -33 -14 -13 -25 -29 -25 -36 0 -7 -4 -14 -8 -16 -4 -1 -30
-32 -57 -68 -27 -36 -52 -67 -55 -70 -16 -15 -65 -86 -62 -92 1 -5 -2 -8 -7
-8 -4 0 -34 -36 -67 -80 -32 -44 -62 -80 -66 -80 -4 0 -8 -7 -8 -15 0 -8 -4
-15 -8 -15 -4 0 -16 -14 -26 -30 -9 -17 -27 -41 -39 -55 -12 -13 -42 -52 -67
-86 -25 -35 -55 -73 -68 -86 -12 -12 -23 -26 -23 -30 0 -5 -8 -18 -19 -30 -10
-12 -47 -61 -81 -108 -35 -47 -66 -85 -71 -85 -4 0 -8 -7 -8 -15 0 -8 -4 -15
-10 -15 -5 0 -10 -6 -10 -13 0 -7 -9 -19 -20 -27 -11 -8 -20 -18 -20 -23 0
-10 -67 -96 -89 -114 -8 -7 -11 -13 -6 -13 4 0 -2 -9 -15 -20 -13 -11 -19 -20
-15 -20 4 0 -4 -11 -18 -24 -14 -13 -23 -27 -20 -30 4 -3 1 -6 -5 -6 -7 0 -12
-7 -12 -15 0 -7 -6 -18 -12 -22 -15 -9 -78 -89 -78 -97 0 -3 -8 -14 -17 -24
-36 -38 -51 -60 -46 -66 4 -3 -1 -6 -11 -6 -9 0 -15 -4 -12 -8 2 -4 -8 -22
-22 -40 -15 -18 -36 -44 -47 -58 -11 -15 -28 -34 -37 -44 -9 -10 -14 -21 -11
-23 2 -3 -5 -10 -16 -17 -12 -6 -19 -15 -16 -21 4 -5 2 -9 -2 -9 -5 0 -23 -23
-41 -50 -18 -28 -37 -50 -42 -50 -6 0 -10 -6 -10 -13 0 -7 -12 -26 -27 -44
-16 -17 -37 -43 -48 -59 -11 -15 -33 -43 -49 -61 -15 -18 -24 -33 -20 -33 4 0
1 -6 -8 -13 -8 -6 -44 -50 -79 -97 -34 -47 -67 -86 -71 -88 -4 -2 -8 -8 -8
-14 0 -5 -6 -15 -12 -22 -7 -7 -22 -25 -33 -41 -11 -16 -30 -39 -42 -52 -13
-13 -23 -27 -23 -31 0 -4 -12 -20 -26 -37 -14 -16 -44 -56 -66 -87 -23 -32
-45 -58 -49 -58 -5 0 -9 -6 -9 -12 0 -7 -18 -33 -40 -57 -22 -25 -38 -47 -36
-49 3 -2 -3 -11 -12 -21 -9 -9 -28 -32 -42 -50 -14 -18 -33 -42 -42 -52 -10
-11 -15 -19 -11 -19 4 0 -2 -8 -13 -19 -10 -10 -26 -28 -34 -41 -14 -21 -24
-33 -62 -79 -10 -12 -18 -25 -18 -29 0 -4 -12 -21 -27 -37 -16 -16 -40 -48
-55 -72 -15 -23 -35 -50 -45 -61 -10 -10 -25 -29 -33 -41 -8 -13 -23 -33 -34
-44 -10 -12 -32 -42 -49 -67 -32 -46 -53 -72 -74 -95 -7 -8 -13 -16 -13 -19 0
-5 -19 -30 -45 -60 -6 -6 -18 -24 -28 -39 -20 -32 -43 -61 -69 -89 -10 -10
-15 -18 -10 -18 4 0 2 -4 -3 -8 -6 -4 -26 -27 -45 -52 -19 -25 -39 -48 -45
-52 -5 -4 -10 -11 -11 -15 -2 -20 -17 -42 -24 -38 -5 3 -11 -4 -15 -15 -3 -11
-11 -20 -16 -20 -6 0 -8 -4 -5 -9 4 -5 3 -11 -2 -13 -4 -1 -37 -41 -72 -88
-35 -47 -68 -87 -72 -88 -5 -2 -6 -8 -2 -13 3 -5 -2 -9 -11 -9 -9 0 -14 -4
-11 -8 3 -4 -12 -26 -31 -48 -20 -21 -36 -41 -35 -44 1 -3 -5 -13 -14 -24 -15
-17 -14 -20 10 -42 14 -13 28 -24 31 -24 7 0 27 -16 56 -45 l20 -20 20 25 c11
14 26 32 33 41 8 9 40 52 72 95 66 88 84 111 101 129 7 7 10 15 7 18 -3 3 4
11 16 17 12 6 19 14 17 17 -3 2 2 13 11 22 34 35 62 71 62 79 0 5 11 19 25 32
14 13 25 28 25 33 0 5 8 17 18 26 9 9 29 34 44 56 15 22 38 52 50 67 13 15 43
54 67 87 24 34 48 61 53 61 5 0 6 5 3 10 -3 6 -1 10 4 10 6 0 11 6 11 13 0 7
8 20 18 28 9 9 35 42 57 74 22 32 50 69 62 82 12 12 19 23 16 23 -3 0 4 9 17
20 13 11 19 20 14 20 -5 1 2 10 15 20 13 11 19 20 15 20 -5 0 -2 6 6 13 8 7
55 66 104 132 49 66 95 125 102 131 8 6 14 14 14 18 0 4 6 14 13 21 6 8 21 26
32 41 11 14 28 34 37 44 9 10 14 21 11 23 -2 3 5 10 16 17 12 6 19 15 16 21
-4 5 -2 9 2 9 5 0 16 12 25 27 10 16 28 42 42 58 14 17 30 35 36 42 5 7 10 15
10 18 0 4 9 15 55 66 8 9 15 20 15 25 0 6 13 23 30 39 16 15 27 31 25 36 -3 4
-1 9 4 11 10 3 91 104 91 113 0 3 8 14 18 24 20 23 27 32 67 86 17 22 35 45
40 52 17 21 28 36 104 138 41 55 85 111 98 124 12 13 20 27 17 32 -3 5 2 9 10
9 9 0 16 6 16 13 0 6 11 26 25 42 33 41 35 43 79 103 21 28 42 52 47 52 5 0 8
4 7 8 -3 8 32 58 64 92 9 10 14 21 10 24 -3 3 2 6 11 6 11 0 14 5 10 17 -4 10
-2 14 5 9 6 -3 13 3 17 14 3 11 11 20 16 20 5 0 9 7 9 15 0 9 7 18 15 21 8 4
15 12 15 19 0 7 7 16 16 19 9 4 14 9 10 13 -3 3 3 12 14 20 11 8 20 20 20 28
0 7 3 15 8 17 6 3 23 23 109 136 10 13 24 30 31 37 6 8 12 18 12 23 0 6 7 12
15 16 8 3 15 12 15 21 0 8 3 15 8 15 4 0 25 25 46 55 22 30 43 55 48 55 4 0 8
7 8 15 0 9 7 18 15 21 8 4 15 12 15 20 0 7 10 20 22 28 12 9 18 16 13 16 -6 1
1 10 14 20 13 11 20 20 15 20 -4 0 4 12 17 28 14 15 32 37 40 49 14 21 224
298 244 320 30 35 35 43 35 49 0 4 7 14 15 23 18 19 97 121 140 180 17 23 40
54 52 69 13 15 23 31 23 35 0 5 5 5 12 1 6 -4 8 -3 4 4 -3 6 0 16 7 24 7 7 43
54 81 103 37 50 73 97 79 105 7 8 14 18 15 23 1 4 10 15 20 25 30 32 63 76 74
100 6 12 14 22 18 22 4 0 19 18 34 40 29 44 51 72 79 102 9 10 17 20 17 23 0
3 4 11 10 18 42 51 60 76 60 81 0 3 8 15 18 25 22 25 27 32 90 116 29 39 60
80 70 91 9 12 26 34 37 50 11 15 28 36 38 46 9 10 17 22 17 28 0 6 5 10 10 10
6 0 10 6 10 14 0 8 3 16 8 18 4 2 33 37 64 78 31 41 64 83 72 93 9 9 16 22 16
27 0 6 7 13 15 16 8 4 15 10 15 16 0 5 6 15 13 22 6 7 21 25 32 40 11 16 25
33 30 40 6 6 23 29 40 51 44 60 48 65 72 91 13 14 22 25 21 27 -3 2 80 114
105 141 23 27 21 46 -8 79 -14 15 -22 27 -18 27 4 0 4 4 -2 8 -14 10 -85 99
-85 107 0 3 -10 16 -22 29 -13 13 -30 33 -38 46 -12 18 -78 105 -185 245 -9
11 -35 47 -60 80 -24 33 -50 67 -58 75 -7 8 -24 31 -37 50 -13 19 -32 42 -42
51 -10 9 -18 20 -18 25 0 5 -16 27 -35 49 -19 22 -35 46 -35 53 0 6 -7 12 -15
12 -8 0 -15 7 -15 15 0 8 -4 15 -10 15 -5 0 -10 5 -10 11 0 10 -35 57 -75 100
-8 9 -15 19 -15 23 0 4 -6 13 -12 21 -29 31 -63 79 -60 87 1 4 -2 8 -8 8 -5 0
-25 22 -43 50 -19 27 -37 47 -40 43 -4 -3 -7 -1 -7 6 0 7 -13 30 -30 51 -16
20 -27 40 -23 44 3 3 -1 6 -10 6 -16 0 -22 12 -17 35 1 6 -2 7 -5 3 -4 -4 -21
12 -38 35 -17 23 -35 45 -41 49 -6 4 -7 8 -3 8 5 0 1 7 -7 16 -9 8 -42 50 -73
92 -64 85 -82 108 -100 127 -7 8 -13 16 -13 20 0 3 -5 11 -10 18 -31 37 -50
61 -90 116 -25 34 -48 61 -52 61 -5 0 -8 5 -8 10 0 12 -4 17 -50 70 -16 19
-30 40 -30 48 0 7 -4 10 -10 7 -5 -3 -10 -1 -10 5 0 10 -82 122 -123 168 -11
12 -17 22 -13 22 4 0 -4 11 -18 24 -15 13 -26 28 -26 35 0 6 -3 11 -8 11 -4 0
-18 18 -32 40 -14 22 -31 40 -39 40 -8 0 -12 3 -8 6 6 6 -80 126 -95 132 -4 2
-8 8 -8 14 0 5 -19 33 -42 62 -58 72 -80 101 -98 127 -8 12 -25 32 -38 45 -13
13 -20 24 -17 24 6 0 -7 17 -43 55 -13 14 -20 25 -18 25 6 0 -16 28 -41 55 -7
8 -13 16 -13 20 0 7 -19 30 -42 53 -10 9 -18 22 -18 30 0 7 -4 10 -10 7 -5 -3
-10 0 -10 7 0 7 -16 31 -35 53 -19 22 -35 43 -35 48 0 4 -8 15 -17 25 -26 27
-53 62 -53 67 0 2 -16 21 -35 42 -19 21 -35 43 -35 49 0 7 -7 14 -15 18 -8 3
-15 12 -15 20 0 8 -3 16 -7 18 -5 2 -28 30 -53 63 -25 33 -49 65 -55 72 -19
22 -47 58 -102 133 -30 41 -65 87 -77 102 -11 15 -30 39 -41 54 -11 15 -26 33
-32 40 -7 7 -13 15 -13 18 0 6 -25 39 -52 68 -10 10 -16 18 -13 18 3 0 -4 10
-14 23 -11 12 -29 33 -40 46 -12 13 -21 27 -21 31 0 3 -8 15 -17 26 -10 10
-31 37 -47 59 -17 22 -35 43 -40 47 -7 5 -7 8 -1 8 5 0 -1 7 -13 16 -12 8 -22
19 -22 24 0 9 -17 32 -45 64 -6 6 -26 33 -45 60 -19 27 -47 63 -62 80 -16 17
-28 36 -28 43 0 7 -4 13 -8 13 -4 0 -36 39 -71 86 -35 47 -70 92 -77 99 -8 7
-14 17 -14 22 0 4 -16 25 -35 46 -19 21 -35 42 -35 48 0 5 -4 9 -10 9 -5 0
-10 6 -10 13 0 7 -9 19 -20 27 -11 8 -20 18 -20 23 0 5 -6 14 -12 21 -7 8 -20
24 -28 36 -8 12 -27 36 -42 54 -15 17 -28 34 -28 38 0 4 -6 13 -13 20 -7 7
-24 29 -37 48 -13 19 -27 37 -30 40 -3 3 -17 21 -30 40 -13 19 -31 40 -40 47
-8 7 -11 13 -6 13 5 0 -3 11 -18 25 -15 14 -25 25 -22 25 6 0 -16 28 -41 55
-7 8 -13 18 -13 23 0 6 -7 13 -16 16 -9 4 -14 9 -11 12 3 4 -7 20 -23 38 -17
17 -30 34 -30 37 0 4 -16 24 -35 45 -19 22 -35 44 -35 50 0 7 -7 14 -15 18 -8
3 -15 10 -15 16 0 6 -13 25 -30 43 -16 18 -30 36 -30 41 0 5 -10 17 -22 27
-11 11 -18 19 -15 19 4 0 -1 8 -10 18 -24 25 -43 50 -73 92 -13 19 -27 37 -30
40 -8 7 -6 817 2 825 3 4 12 -4 19 -17 6 -12 15 -25 18 -28 3 -3 35 -43 71
-90 35 -47 69 -88 75 -92 5 -4 7 -8 3 -8 -7 0 17 -32 50 -66 6 -7 12 -16 12
-20 0 -3 15 -23 33 -44 33 -39 51 -62 77 -101 8 -12 23 -31 33 -41 9 -10 17
-20 17 -23 0 -6 14 -24 42 -56 10 -10 19 -25 20 -31 2 -7 11 -19 21 -26 9 -7
17 -20 17 -28 0 -8 8 -14 17 -14 9 0 14 -3 10 -6 -5 -6 10 -28 45 -65 9 -9 14
-20 10 -23 -3 -3 -1 -6 5 -6 6 0 16 -13 23 -30 7 -16 19 -30 26 -30 8 0 14 -6
14 -13 0 -7 11 -24 25 -39 14 -15 25 -30 25 -34 0 -3 12 -21 28 -39 15 -18 36
-45 47 -60 11 -16 26 -34 33 -41 6 -7 12 -17 12 -22 0 -6 3 -12 8 -14 9 -4
112 -135 112 -143 0 -5 7 -13 58 -69 12 -14 22 -28 22 -31 0 -8 62 -87 75 -97
6 -4 7 -8 3 -8 -4 0 5 -12 19 -27 14 -16 33 -39 41 -53 9 -14 22 -29 29 -33 7
-4 13 -15 13 -22 0 -8 3 -15 8 -15 4 0 18 -18 32 -39 13 -22 28 -38 32 -35 4
3 8 0 8 -6 0 -7 13 -29 30 -50 16 -20 27 -40 25 -44 -3 -3 -2 -4 2 -1 6 4 17
-9 68 -80 11 -15 32 -42 48 -60 15 -18 27 -36 27 -40 0 -4 11 -18 24 -30 13
-12 31 -37 41 -54 9 -18 22 -34 30 -37 8 -3 17 -15 21 -26 3 -11 19 -34 35
-51 16 -16 29 -36 29 -44 0 -8 5 -11 10 -8 6 3 10 -1 10 -9 0 -9 5 -16 10 -16
6 0 10 -6 10 -14 0 -8 4 -16 8 -18 13 -5 112 -136 112 -148 0 -5 4 -10 8 -10
5 0 24 -21 42 -47 19 -27 36 -50 40 -53 3 -3 21 -27 40 -53 19 -27 43 -56 53
-65 9 -9 17 -21 17 -26 0 -5 10 -17 22 -27 11 -11 18 -19 14 -19 -4 0 4 -12
18 -27 14 -15 22 -31 19 -36 -3 -6 -2 -7 4 -4 6 4 18 -9 29 -28 10 -18 22 -32
26 -29 4 3 8 0 8 -6 0 -9 96 -142 135 -186 6 -6 17 -22 25 -34 8 -12 20 -28
25 -34 6 -6 30 -38 55 -71 25 -33 48 -61 53 -63 4 -2 7 -8 7 -14 0 -5 6 -15
13 -23 6 -7 23 -28 37 -46 14 -18 31 -38 38 -46 7 -7 11 -13 8 -13 -3 0 2 -8
12 -18 23 -26 44 -52 64 -83 9 -14 23 -32 30 -40 27 -28 68 -88 68 -98 0 -6 7
-11 15 -11 8 0 15 -7 15 -15 0 -8 5 -15 10 -15 6 0 10 -6 10 -14 0 -8 4 -16 8
-18 5 -1 28 -30 53 -63 24 -33 47 -61 52 -63 4 -2 7 -8 7 -13 0 -8 26 -42 58
-75 7 -8 10 -14 6 -14 -4 0 3 -8 14 -19 12 -10 22 -22 22 -27 0 -5 8 -17 18
-26 23 -23 42 -46 42 -53 0 -4 6 -12 13 -19 6 -7 23 -28 37 -46 14 -18 31 -39
38 -46 6 -7 12 -17 12 -22 0 -6 4 -12 8 -14 4 -1 23 -25 42 -53 19 -27 40 -54
46 -60 6 -5 24 -28 40 -50 16 -22 31 -42 34 -45 15 -15 70 -90 70 -96 0 -4 8
-14 18 -23 10 -9 38 -44 61 -78 24 -35 48 -63 52 -63 5 0 9 -6 9 -12 0 -7 14
-29 30 -48 16 -19 34 -40 40 -47 5 -7 10 -17 10 -23 0 -5 4 -10 8 -10 4 0 28
-28 52 -62 24 -35 47 -64 52 -66 4 -2 8 -9 8 -15 0 -7 14 -25 30 -41 17 -16
30 -33 30 -37 0 -4 14 -23 30 -41 17 -18 30 -38 30 -46 0 -7 4 -11 9 -8 5 3
11 -1 15 -9 8 -21 128 -178 143 -188 7 -4 13 -13 13 -20 0 -7 13 -26 28 -43
15 -18 34 -42 42 -54 8 -12 27 -36 42 -54 15 -17 28 -34 28 -38 0 -5 8 -16 18
-26 9 -9 38 -47 64 -82 26 -36 54 -72 63 -81 8 -9 15 -19 15 -22 0 -4 8 -15
18 -25 9 -11 26 -32 37 -47 11 -16 25 -33 30 -39 6 -6 30 -38 54 -71 25 -33
48 -61 53 -63 4 -2 8 -9 8 -15 0 -7 16 -30 36 -52 19 -22 43 -52 52 -67 9 -16
20 -28 24 -28 4 0 8 -6 8 -14 0 -8 4 -16 8 -18 4 -1 30 -32 57 -68 27 -36 53
-66 57 -68 4 -2 8 -9 8 -15 0 -7 16 -29 35 -51 19 -21 35 -41 35 -45 0 -3 14
-22 30 -41 16 -19 34 -40 40 -47 5 -7 10 -16 10 -22 0 -5 4 -11 9 -13 9 -3
136 -169 151 -199 8 -15 4 -26 -25 -57 -19 -22 -35 -43 -35 -46 0 -4 -6 -13
-12 -20 -7 -7 -22 -25 -33 -40 -11 -16 -24 -33 -30 -40 -5 -6 -37 -47 -70 -91
-33 -44 -62 -82 -65 -85 -3 -3 -17 -21 -30 -40 -14 -19 -28 -39 -32 -45 -5 -5
-16 -20 -26 -32 -9 -12 -26 -34 -37 -49 -11 -16 -28 -36 -37 -46 -10 -10 -18
-20 -18 -23 0 -3 -4 -11 -10 -18 -10 -12 -40 -51 -90 -117 -14 -18 -31 -39
-38 -47 -7 -7 -11 -13 -8 -13 3 0 -2 -8 -11 -18 -10 -10 -27 -30 -38 -46 -38
-53 -205 -271 -224 -294 -11 -12 -16 -22 -13 -22 4 0 2 -4 -4 -8 -6 -4 -37
-43 -70 -87 -59 -80 -74 -99 -106 -137 -10 -12 -18 -24 -18 -27 0 -3 -10 -17
-22 -31 -13 -14 -43 -52 -67 -85 -25 -33 -48 -61 -53 -63 -4 -2 -8 -10 -8 -17
0 -7 -4 -15 -8 -17 -5 -1 -28 -30 -53 -63 -24 -33 -50 -64 -56 -68 -7 -4 -13
-13 -13 -18 0 -11 -70 -102 -82 -107 -5 -2 -8 -10 -8 -17 0 -7 -3 -15 -8 -17
-4 -1 -30 -33 -57 -70 -27 -38 -52 -68 -57 -68 -4 0 -8 -6 -8 -13 0 -7 -10
-23 -22 -37 -13 -14 -34 -42 -48 -62 -14 -21 -28 -38 -32 -38 -5 0 -8 -7 -8
-16 0 -8 -4 -12 -10 -9 -5 3 -10 1 -10 -5 0 -12 -86 -130 -105 -142 -5 -4 -7
-8 -2 -8 4 0 -1 -8 -10 -18 -10 -10 -29 -33 -43 -52 -14 -18 -31 -39 -38 -47
-7 -7 -11 -13 -7 -13 4 0 0 -6 -7 -13 -7 -8 -24 -29 -38 -47 -14 -19 -33 -42
-42 -52 -10 -10 -18 -21 -18 -26 0 -4 -13 -22 -30 -40 -16 -18 -30 -35 -30
-38 0 -2 -18 -28 -41 -57 -22 -29 -53 -67 -67 -86 -15 -19 -26 -38 -24 -43 1
-4 -2 -8 -6 -8 -4 0 -26 -24 -47 -53 -22 -28 -42 -54 -45 -57 -3 -3 -39 -50
-80 -105 -40 -55 -78 -103 -84 -107 -6 -4 -8 -8 -4 -8 3 0 -7 -15 -22 -32 -16
-18 -29 -36 -29 -41 0 -4 -12 -18 -26 -31 -14 -13 -25 -26 -25 -30 0 -6 -24
-38 -53 -68 -9 -10 -14 -18 -10 -18 5 0 3 -4 -3 -8 -5 -4 -23 -25 -40 -47 -16
-22 -36 -45 -44 -52 -8 -7 -11 -13 -7 -13 5 0 2 -6 -5 -14 -22 -23 -63 -77
-129 -166 -35 -47 -68 -90 -74 -97 -15 -18 -25 -31 -74 -98 -25 -33 -47 -62
-51 -65 -3 -3 -17 -21 -30 -40 -13 -19 -27 -37 -30 -40 -3 -3 -23 -30 -45 -60
-22 -30 -46 -60 -55 -67 -8 -7 -11 -13 -5 -13 5 0 -1 -7 -13 -16 -12 -8 -22
-20 -22 -25 0 -11 -12 -27 -51 -70 -15 -15 -24 -31 -21 -34 3 -3 0 -5 -6 -5
-7 0 -12 -6 -12 -14 0 -8 -7 -16 -15 -20 -8 -3 -15 -12 -15 -21 0 -8 -3 -15
-7 -15 -5 0 -24 -23 -43 -50 -19 -27 -38 -50 -42 -50 -5 0 -8 -6 -8 -13 0 -7
-8 -20 -18 -28 -9 -9 -24 -26 -32 -39 -8 -13 -23 -32 -33 -42 -9 -10 -14 -18
-10 -18 4 0 -3 -7 -15 -16 -12 -8 -20 -19 -17 -24 3 -5 -1 -12 -8 -17 -7 -4
-42 -46 -77 -93 -34 -47 -67 -87 -71 -88 -5 -2 -9 -10 -9 -17 0 -7 -3 -15 -7
-17 -5 -2 -25 -25 -45 -53 -21 -27 -41 -54 -46 -60 -4 -5 -21 -28 -37 -50 -17
-22 -34 -45 -40 -51 -5 -7 -19 -24 -30 -40 -11 -15 -26 -33 -33 -41 -7 -7 -11
-13 -7 -13 3 0 -6 -12 -20 -28 -14 -15 -35 -42 -46 -59 -11 -18 -25 -33 -30
-33 -5 0 -9 -5 -9 -11 0 -6 -18 -33 -40 -59 -22 -26 -40 -51 -40 -54 0 -3 -8
-14 -17 -24 -10 -11 -27 -32 -38 -47 -11 -16 -26 -34 -32 -41 -7 -7 -13 -16
-13 -21 0 -4 -9 -14 -20 -21 -11 -7 -20 -17 -20 -22 0 -5 -6 -18 -14 -27 -134
-167 -132 -163 -99 -189 15 -10 31 -23 37 -29 32 -28 76 -54 76 -45 0 6 4 9 9
5 5 -3 12 4 16 15 3 11 11 20 16 20 5 0 9 6 9 13 0 7 11 24 25 39 14 15 25 32
25 38 0 5 7 10 17 10 9 0 14 3 10 6 -3 3 -1 11 4 18 6 6 51 65 100 131 50 66
96 123 102 127 7 4 8 8 2 8 -6 0 -6 3 1 8 5 4 23 25 40 47 16 22 36 45 44 52
8 7 12 13 8 13 -8 0 18 34 55 72 9 10 17 20 17 23 0 2 11 21 25 41 14 20 25
33 25 28 0 -5 9 6 21 25 11 19 26 39 32 46 7 6 23 28 37 48 14 20 28 37 33 37
4 0 7 5 7 11 0 6 6 17 13 24 19 22 30 36 77 100 25 33 47 62 50 65 4 4 123
161 165 218 6 8 20 24 31 37 12 13 19 26 16 29 -3 3 0 6 6 6 7 0 12 5 12 10 0
6 8 19 18 29 9 10 35 44 57 75 22 30 43 55 48 56 4 0 7 6 7 13 0 7 8 20 18 29
18 17 19 19 67 83 37 50 39 53 70 91 14 18 25 37 25 44 0 6 4 9 9 5 5 -3 12 3
15 13 4 10 14 27 24 38 10 10 28 35 42 54 13 19 27 37 30 40 3 3 48 61 99 130
52 69 106 139 120 156 14 17 44 57 66 88 22 31 43 56 47 56 4 0 8 5 8 11 0 7
21 36 46 65 25 30 43 54 40 54 -3 0 2 8 11 18 10 11 27 32 38 48 11 16 30 39
42 51 12 13 20 23 17 23 -3 0 13 22 36 50 23 27 39 50 34 50 -4 0 4 9 17 21
13 12 23 25 21 30 -1 5 2 9 7 9 4 0 21 19 36 43 16 23 34 46 42 50 7 4 13 14
13 22 0 7 3 15 8 17 8 3 46 49 77 94 11 15 28 36 38 46 9 10 16 19 15 21 -3 3
14 25 50 63 12 14 22 27 22 30 0 8 92 128 105 136 5 4 6 8 1 8 -5 0 3 12 18
26 14 15 35 42 47 60 11 19 25 34 30 34 5 0 9 5 9 11 0 6 18 33 40 59 22 26
40 51 40 54 0 3 12 19 26 35 14 16 25 32 24 36 -1 4 5 12 13 18 7 7 31 35 53
62 21 28 44 53 49 57 7 5 7 8 0 8 -6 0 -6 3 1 8 6 4 27 30 46 59 20 29 38 49
42 46 3 -4 6 -1 6 6 0 12 9 25 43 62 9 10 14 19 11 19 -4 0 8 14 25 32 17 17
31 35 31 39 0 4 6 14 13 21 10 10 81 103 139 183 4 6 19 23 34 40 14 16 33 42
42 57 9 16 20 28 24 28 4 0 8 6 8 14 0 8 4 16 8 18 5 2 35 39 68 83 32 44 62
82 67 83 4 2 7 10 7 18 0 8 8 14 17 14 9 0 13 3 10 7 -4 4 5 19 20 35 15 15
23 28 19 28 -5 0 2 9 15 20 13 10 20 19 16 20 -4 0 2 11 15 25 35 37 52 58 63
76 10 18 125 170 134 179 17 15 71 90 71 99 0 5 3 11 8 13 6 3 38 42 112 139
14 19 32 41 42 50 9 10 15 19 12 21 -2 2 12 21 31 41 19 20 32 37 29 37 -3 0
6 14 20 31 14 17 26 35 26 40 0 6 5 7 10 4 6 -3 10 1 10 9 0 9 5 16 10 16 6 0
10 5 10 11 0 11 79 111 93 117 4 2 7 10 7 18 0 8 4 14 8 14 4 0 15 12 24 28 9
15 26 37 38 50 11 12 18 22 15 22 -3 0 3 9 13 19 41 45 171 218 179 239 3 7
-5 21 -17 32 -13 11 -20 20 -17 20 7 0 -14 29 -45 62 -10 10 -18 21 -18 24 0
6 -39 57 -65 85 -8 9 -15 19 -15 23 0 4 -10 18 -22 31 -13 13 -52 63 -88 112
-36 48 -68 90 -73 91 -4 2 -5 8 -1 13 3 5 -2 9 -10 9 -9 0 -16 5 -16 10 0 10
-64 98 -95 131 -8 9 -15 20 -15 26 0 6 -7 13 -15 17 -8 3 -15 12 -15 21 0 8
-4 15 -10 15 -5 0 -10 7 -10 16 0 8 -4 12 -10 9 -5 -3 -10 -1 -10 5 0 6 -6 17
-12 24 -7 7 -22 25 -33 41 -11 15 -46 61 -78 101 -31 41 -54 74 -51 74 3 0 -4
9 -17 20 -13 10 -21 19 -17 20 4 0 -3 11 -15 24 -34 36 -66 76 -61 76 3 0 -17
27 -41 54 -6 6 -22 27 -35 46 -13 19 -27 37 -30 40 -3 3 -22 28 -41 55 -18 28
-42 56 -51 63 -10 7 -18 17 -18 23 0 5 -12 23 -27 40 -16 17 -27 33 -25 35 1
3 -9 15 -23 28 -14 13 -25 28 -25 34 0 6 -10 18 -22 26 -12 9 -19 16 -15 16 8
0 -8 22 -35 48 -10 9 -18 22 -18 28 0 7 -3 14 -7 16 -5 2 -44 50 -88 108 -43
58 -82 107 -85 110 -3 3 -16 21 -30 40 -29 42 -39 55 -62 81 -10 10 -18 23
-18 28 0 5 -3 11 -7 13 -5 2 -28 30 -52 63 -25 33 -48 62 -53 63 -4 2 -8 8 -8
13 0 10 -11 25 -48 64 -13 14 -20 25 -17 25 6 0 -7 17 -43 55 -13 14 -20 25
-18 25 6 0 0 7 -51 68 -13 15 -23 33 -23 40 0 6 -4 12 -9 12 -4 0 -21 19 -37
43 -16 23 -35 46 -41 50 -7 4 -13 12 -13 17 0 6 -8 18 -17 28 -10 11 -27 32
-38 47 -11 16 -26 34 -33 42 -7 7 -10 13 -5 13 4 0 -3 7 -15 16 -12 8 -20 19
-17 24 3 4 -2 10 -10 14 -8 3 -15 12 -15 21 0 8 -7 15 -15 15 -8 0 -15 7 -15
15 0 8 -4 15 -10 15 -5 0 -10 5 -10 11 0 6 -12 26 -27 44 -16 18 -37 45 -48
60 -11 16 -26 34 -32 41 -7 7 -13 17 -13 22 0 6 -4 12 -8 14 -5 2 -28 30 -53
63 -24 33 -46 62 -49 65 -3 3 -18 23 -35 45 -16 22 -35 46 -42 53 -7 7 -13 16
-13 20 0 4 -16 24 -36 46 -19 21 -33 40 -31 43 3 2 -5 14 -17 27 -36 38 -81
99 -79 108 2 4 -1 8 -6 8 -4 0 -32 33 -62 73 -58 78 -77 102 -96 122 -7 8 -13
18 -13 23 0 6 -3 12 -8 14 -11 5 -112 137 -112 147 0 5 -7 12 -16 15 -9 4 -14
9 -11 13 4 3 -5 14 -18 25 -14 11 -25 25 -25 33 0 7 -7 15 -15 19 -8 3 -15 12
-15 20 0 8 -3 16 -7 18 -13 5 -73 86 -73 98 0 6 -4 9 -8 6 -5 -3 -17 9 -27 27
-10 18 -36 53 -57 78 -21 26 -38 51 -38 55 0 5 -9 15 -21 22 -12 7 -18 16 -15
19 3 3 0 11 -7 17 -7 7 -23 27 -37 45 -14 18 -33 42 -44 54 -10 12 -26 33 -35
47 -20 31 -40 57 -63 82 -10 10 -16 18 -13 18 4 0 -14 25 -40 54 -6 6 -22 27
-35 46 -13 19 -27 37 -30 40 -12 12 -100 129 -100 134 0 3 -8 14 -17 24 -10
10 -29 33 -43 52 -14 18 -43 57 -65 86 -22 29 -49 65 -60 80 -11 15 -26 33
-32 40 -7 7 -13 17 -13 22 0 6 -4 12 -8 14 -6 2 -117 146 -265 343 -4 5 -21
26 -37 45 -16 19 -30 38 -30 43 0 4 -8 15 -17 25 -10 11 -26 30 -35 43 -33 47
-53 71 -70 87 -10 9 -18 22 -18 28 0 7 -3 14 -7 16 -5 2 -28 30 -53 63 -25 33
-48 62 -52 63 -5 2 -8 9 -8 16 0 6 -9 18 -20 26 -11 8 -20 19 -20 26 0 6 -13
24 -30 40 -16 16 -30 35 -30 42 0 6 -4 12 -10 12 -5 0 -10 7 -10 16 0 8 -4 12
-10 9 -5 -3 -10 -1 -10 5 0 7 -9 24 -20 38 -11 15 -27 36 -36 47 -50 67 -71
95 -89 119 -11 15 -32 42 -47 59 -15 18 -28 35 -28 39 0 4 -11 18 -24 31 -14
14 -23 27 -20 30 3 2 -7 15 -21 28 -14 13 -35 40 -47 59 -12 19 -28 39 -35 43
-7 4 -13 13 -13 18 0 6 -13 24 -30 42 -16 18 -30 38 -30 45 0 6 -4 12 -8 12
-4 0 -19 18 -32 39 -14 21 -28 37 -32 34 -5 -2 -8 3 -8 11 0 9 -4 16 -10 16
-5 0 -10 4 -10 10 0 5 -8 19 -17 31 -39 46 -49 58 -63 79 -8 12 -21 28 -27 36
-7 7 -13 18 -13 24 0 6 -4 8 -10 5 -5 -3 -10 1 -10 10 0 8 -7 18 -15 21 -8 4
-12 10 -9 15 3 5 2 9 -3 9 -4 0 -19 17 -33 37 -27 40 -47 67 -67 88 -7 8 -13
17 -13 22 0 4 -8 13 -18 19 -15 10 -18 8 -18 -7 0 -11 3 -19 6 -19 6 0 5 -41
0 -47 -7 -8 -5 -30 3 -40 6 -8 6 -13 0 -13 -5 0 -9 -9 -9 -20 0 -11 4 -20 8
-20 4 0 8 -5 8 -11 0 -5 -3 -8 -7 -6 -5 3 -8 -15 -8 -39 0 -24 2 -44 6 -44 5
0 4 -41 -1 -47 -7 -8 -5 -30 3 -40 6 -8 6 -13 0 -13 -5 0 -9 -9 -9 -20 0 -11
4 -20 8 -20 4 0 8 -5 8 -11 0 -5 -3 -8 -7 -6 -5 3 -8 -15 -8 -39 0 -24 2 -44
6 -44 5 0 4 -41 -1 -47 -7 -8 -5 -30 3 -40 6 -8 6 -13 0 -13 -5 0 -9 -9 -9
-20 0 -11 4 -20 8 -20 4 0 8 -5 8 -11 0 -5 -3 -8 -7 -6 -5 3 -8 -15 -8 -39 0
-24 2 -44 6 -44 5 0 4 -41 -1 -47 -7 -8 -5 -30 3 -40 6 -8 6 -13 0 -13 -5 0
-9 -9 -9 -20 0 -11 4 -20 8 -20 4 0 8 -5 8 -11 0 -5 -3 -8 -7 -6 -5 3 -8 -15
-8 -39 0 -24 2 -44 6 -44 5 0 4 -36 -1 -50 -1 -3 -1 -15 0 -27 1 -15 -4 -23
-14 -23 -9 0 -16 4 -16 10 0 9 -6 18 -52 72 -10 12 -18 24 -18 27 0 3 -14 22
-31 41 -17 19 -38 47 -47 62 -9 15 -20 28 -24 28 -4 0 -8 7 -8 16 0 8 -4 12
-10 9 -9 -6 -14 8 -11 28 1 5 -2 6 -7 3 -5 -3 -15 7 -23 22 -8 14 -21 34 -29
44 -8 9 -24 29 -35 43 -11 14 -32 40 -47 58 -14 17 -24 35 -22 39 3 4 1 8 -5
8 -5 0 -23 19 -40 43 -17 23 -39 53 -48 66 -10 13 -24 30 -30 37 -7 7 -13 15
-13 18 0 4 -12 20 -27 37 -16 17 -27 33 -26 35 2 2 -7 14 -20 28 -33 35 -81
97 -86 110 -2 6 -11 16 -20 23 -9 7 -12 13 -6 13 5 0 -1 7 -13 16 -12 8 -22
21 -22 27 0 7 -9 19 -20 27 -11 8 -20 18 -20 22 0 7 -6 16 -51 69 -15 17 -16
10 -14 -99z"/>
<path d="M4566 13265 c-26 -36 -52 -65 -57 -65 -5 0 -8 -4 -6 -8 1 -5 -8 -21
-21 -38 -12 -16 -50 -65 -83 -109 -34 -44 -66 -83 -72 -87 -7 -4 -7 -8 -2 -8
7 0 7 -3 0 -8 -6 -4 -23 -25 -40 -47 -16 -22 -34 -45 -40 -51 -5 -6 -17 -22
-25 -34 -8 -12 -27 -36 -42 -54 -15 -17 -28 -34 -28 -38 0 -4 -6 -13 -13 -20
-7 -7 -26 -31 -42 -53 -17 -22 -32 -42 -35 -45 -3 -3 -17 -21 -30 -40 -13 -19
-27 -37 -30 -40 -3 -3 -48 -61 -100 -130 -51 -69 -98 -126 -102 -128 -4 -2 -8
-10 -8 -18 0 -8 -7 -17 -15 -20 -8 -4 -15 -10 -15 -15 0 -8 -20 -35 -47 -64
-7 -8 -13 -18 -13 -23 0 -6 -7 -13 -16 -16 -8 -3 -13 -10 -10 -15 4 -5 2 -11
-3 -13 -10 -3 -91 -104 -91 -113 0 -3 -8 -14 -17 -24 -23 -25 -33 -38 -63 -80
-28 -39 -58 -77 -78 -97 -7 -8 -10 -14 -5 -14 4 0 -3 -7 -15 -16 -12 -8 -22
-22 -22 -30 0 -8 -4 -14 -8 -14 -4 0 -16 -14 -26 -30 -9 -17 -27 -39 -39 -50
-11 -11 -18 -20 -14 -20 4 0 -1 -8 -10 -18 -29 -31 -53 -62 -72 -93 -10 -16
-21 -26 -24 -22 -4 3 -7 0 -7 -8 0 -8 -14 -30 -30 -49 -17 -19 -43 -54 -58
-77 -15 -24 -33 -43 -40 -43 -7 0 -11 -4 -8 -9 3 -5 -10 -25 -28 -45 -19 -20
-32 -36 -29 -36 6 0 -59 -84 -69 -88 -5 -2 -8 -8 -8 -14 0 -6 -14 -27 -31 -47
-61 -73 -67 -81 -62 -81 3 0 -4 -8 -15 -19 -12 -10 -22 -23 -22 -29 0 -6 -10
-18 -22 -26 -12 -9 -19 -16 -15 -16 7 0 -13 -27 -45 -62 -10 -10 -15 -18 -11
-18 3 0 -4 -9 -17 -20 -13 -11 -19 -20 -14 -20 5 0 4 -4 -2 -8 -6 -4 -30 -34
-55 -67 -24 -33 -50 -64 -57 -68 -7 -5 -10 -12 -7 -18 4 -5 2 -9 -3 -9 -5 0
-26 -25 -47 -55 -20 -30 -41 -55 -46 -55 -5 0 -9 -7 -9 -15 0 -8 -4 -15 -8
-15 -4 0 -15 -12 -24 -27 -19 -31 -54 -77 -81 -105 -9 -10 -14 -18 -10 -18 5
0 1 -6 -7 -13 -9 -7 -27 -28 -40 -47 -13 -19 -30 -39 -37 -43 -7 -4 -13 -13
-13 -18 0 -12 -60 -91 -77 -102 -7 -4 -13 -14 -13 -22 0 -7 -3 -15 -7 -17 -5
-1 -30 -32 -58 -68 -27 -36 -53 -66 -57 -68 -5 -2 -8 -10 -8 -18 0 -8 -4 -14
-10 -14 -5 0 -10 -5 -10 -11 0 -7 -11 -22 -24 -34 -14 -13 -22 -26 -19 -29 3
-3 -2 -8 -11 -12 -9 -3 -16 -10 -16 -16 0 -5 -6 -15 -13 -22 -6 -7 -21 -25
-32 -40 -11 -16 -25 -33 -31 -40 -5 -6 -26 -35 -45 -63 -20 -29 -39 -50 -42
-46 -4 3 -7 0 -7 -8 0 -8 -10 -26 -23 -42 -46 -57 -67 -84 -127 -167 -34 -47
-68 -90 -76 -96 -8 -6 -14 -14 -14 -18 0 -6 -54 -80 -70 -96 -3 -3 -39 -50
-80 -105 -41 -55 -79 -105 -85 -111 -5 -6 -17 -22 -25 -34 -8 -13 -27 -37 -41
-54 -14 -17 -40 -52 -59 -78 -18 -27 -37 -48 -42 -48 -4 0 -8 -5 -8 -10 0 -6
-5 -16 -10 -23 -6 -7 -45 -57 -87 -112 -42 -55 -81 -103 -87 -107 -7 -5 -7 -8
-1 -8 6 0 6 -3 0 -8 -17 -11 -145 -181 -145 -192 0 -5 -6 -13 -13 -17 -6 -4
-25 -26 -41 -48 -31 -42 -42 -56 -76 -92 -11 -13 -20 -26 -19 -29 0 -3 -14
-24 -33 -46 -18 -22 -37 -48 -42 -57 -5 -9 -12 -18 -15 -21 -3 -3 -33 -41 -66
-85 -68 -90 -85 -112 -102 -130 -7 -8 -13 -16 -13 -20 0 -4 -6 -12 -12 -19 -7
-7 -22 -25 -33 -40 -11 -16 -26 -34 -32 -41 -7 -8 -13 -16 -13 -20 0 -3 -13
-20 -30 -38 -16 -18 -30 -38 -30 -44 0 -7 -4 -13 -8 -13 -4 0 -25 -25 -47 -56
-22 -31 -48 -65 -57 -75 -23 -25 -39 -57 -30 -61 4 -2 19 -21 34 -43 15 -22
39 -52 53 -67 14 -15 25 -32 25 -37 0 -6 6 -14 13 -18 7 -4 21 -21 31 -38 11
-16 28 -37 38 -46 10 -9 18 -21 18 -26 0 -6 11 -22 24 -36 13 -14 34 -40 47
-59 13 -18 28 -38 34 -44 5 -6 17 -22 25 -34 8 -12 25 -34 38 -48 12 -15 32
-42 43 -59 11 -18 25 -33 30 -33 6 0 7 -4 4 -10 -3 -5 -3 -10 2 -10 4 0 24
-23 43 -50 19 -27 38 -50 43 -50 4 0 7 -5 7 -11 0 -6 6 -16 12 -23 7 -7 22
-25 33 -40 31 -43 119 -160 125 -166 3 -3 39 -50 80 -105 41 -55 78 -101 82
-103 5 -2 8 -8 8 -13 0 -8 17 -31 45 -63 6 -6 22 -27 35 -46 14 -19 30 -42 37
-50 22 -27 168 -218 183 -240 8 -12 27 -36 42 -54 15 -17 28 -34 28 -38 0 -4
6 -13 13 -20 7 -7 42 -51 77 -98 36 -47 68 -86 73 -88 4 -2 7 -10 7 -17 0 -7
7 -16 16 -19 9 -4 14 -9 11 -12 -3 -4 1 -13 9 -22 9 -8 34 -40 57 -71 22 -31
46 -61 51 -67 6 -7 20 -24 31 -40 11 -15 44 -58 72 -96 29 -38 53 -73 53 -79
0 -5 5 -7 10 -4 6 3 10 -1 10 -10 0 -8 7 -18 15 -21 8 -4 15 -10 15 -15 0 -14
112 -159 122 -159 5 0 7 -4 4 -8 -3 -5 7 -21 20 -38 34 -39 63 -76 121 -154
26 -36 50 -67 53 -70 3 -3 17 -21 30 -40 27 -38 48 -65 68 -85 6 -8 12 -18 12
-24 0 -6 4 -11 8 -11 4 0 15 -12 24 -27 9 -16 29 -40 43 -55 14 -16 22 -28 18
-28 -4 0 -3 -4 2 -8 6 -4 26 -27 45 -52 19 -25 43 -54 52 -64 10 -10 15 -23
12 -28 -3 -4 -1 -8 4 -8 10 0 92 -104 92 -117 0 -5 9 -14 20 -21 11 -7 20 -18
20 -25 0 -7 9 -19 20 -27 11 -8 20 -18 20 -22 0 -7 21 -36 48 -63 6 -8 12 -16
12 -19 0 -5 21 -32 45 -60 6 -6 22 -27 35 -46 13 -19 27 -37 30 -40 3 -3 39
-50 80 -105 41 -55 78 -102 83 -103 4 -2 7 -8 7 -13 0 -5 8 -17 18 -28 18 -19
36 -44 62 -82 8 -12 25 -32 38 -45 13 -13 19 -24 15 -24 -4 0 -3 -4 2 -8 6 -4
33 -36 60 -72 27 -36 53 -67 57 -68 4 -2 8 -10 8 -17 0 -8 6 -18 13 -22 6 -4
25 -27 41 -50 16 -24 33 -43 37 -43 5 0 9 -7 9 -15 0 -8 4 -15 8 -15 4 0 15
-12 24 -27 19 -31 54 -77 81 -105 9 -10 15 -18 12 -18 -5 0 18 -29 43 -55 6
-8 12 -16 12 -19 0 -6 24 -36 48 -61 6 -8 12 -19 12 -25 0 -6 5 -8 10 -5 6 3
10 0 10 -8 0 -7 8 -22 18 -33 10 -10 28 -35 42 -54 13 -19 27 -37 30 -40 3 -3
19 -23 35 -45 16 -22 47 -61 68 -87 21 -27 36 -48 32 -48 -4 0 4 -10 19 -21
15 -12 25 -24 22 -27 -3 -3 3 -11 14 -19 11 -8 20 -21 20 -29 0 -8 3 -14 8
-14 4 0 23 -23 42 -50 19 -27 38 -50 43 -50 4 0 7 -5 7 -11 0 -6 6 -16 12 -23
7 -7 22 -25 33 -40 11 -15 60 -80 108 -144 49 -64 121 -160 160 -212 79 -104
96 -126 115 -145 6 -8 12 -16 12 -19 0 -3 7 -14 15 -23 55 -66 165 -215 165
-223 0 -6 4 -10 8 -10 5 0 26 -26 48 -57 21 -31 48 -66 59 -77 21 -21 25 -28
25 -46 0 -5 7 -10 15 -10 8 0 15 -5 15 -11 0 -6 14 -28 30 -49 17 -21 30 -43
30 -49 0 -6 7 -11 15 -11 8 0 15 -5 15 -10 0 -9 28 -50 95 -138 6 -7 18 -21
28 -30 9 -9 17 -22 17 -29 0 -7 5 -13 10 -13 6 0 10 -6 10 -13 0 -7 9 -18 20
-25 11 -7 20 -19 20 -26 0 -8 3 -16 8 -18 10 -4 142 -177 142 -186 0 -4 9 -13
20 -20 12 -7 19 -16 16 -21 -3 -4 4 -14 15 -21 10 -8 19 -18 19 -23 0 -5 6
-14 13 -21 6 -7 23 -28 37 -46 14 -18 31 -39 38 -46 6 -7 12 -15 12 -18 0 -6
25 -39 53 -68 9 -10 15 -18 12 -18 -5 0 17 -29 42 -55 6 -7 21 -27 32 -46 12
-19 21 -32 22 -29 1 3 3 59 4 125 1 66 4 122 5 125 1 3 1 10 0 15 -7 25 -4
617 3 622 4 2 4 10 0 16 -10 16 -10 187 -1 193 4 3 8 -2 8 -11 0 -9 5 -13 10
-10 6 3 10 -1 10 -9 0 -9 5 -16 10 -16 6 0 10 -6 10 -14 0 -8 4 -16 8 -18 4
-2 43 -50 86 -108 44 -58 85 -110 92 -116 8 -6 14 -15 14 -19 0 -4 10 -19 23
-34 12 -15 33 -42 47 -61 14 -18 31 -39 38 -46 6 -7 12 -17 12 -22 0 -5 9 -16
20 -23 10 -8 20 -20 22 -28 2 -7 12 -23 23 -36 31 -33 55 -65 55 -71 0 -6 20
-30 43 -52 9 -9 17 -22 17 -30 0 -7 5 -10 10 -7 6 3 10 0 10 -8 0 -8 12 -28
28 -45 15 -16 36 -43 47 -58 11 -16 27 -35 35 -44 8 -9 16 -22 18 -29 1 -7 14
-23 27 -35 14 -13 25 -28 25 -34 0 -5 7 -12 15 -16 8 -3 15 -12 15 -21 0 -8 5
-15 12 -15 6 0 9 -3 5 -6 -8 -8 35 -44 45 -37 5 2 3 13 -2 24 -8 14 -7 19 1
19 8 0 9 4 0 13 -8 10 -7 17 1 25 9 9 9 12 0 12 -9 0 -10 5 -3 18 6 11 6 24 0
35 -7 12 -6 17 2 17 8 0 9 4 0 13 -8 10 -7 17 1 25 9 9 9 12 0 12 -9 0 -10 5
-3 18 6 11 6 24 0 35 -7 12 -6 17 2 17 8 0 9 4 0 13 -8 10 -7 17 1 25 9 9 9
12 0 12 -9 0 -10 5 -3 18 6 11 6 24 0 35 -7 12 -6 17 2 17 8 0 9 4 0 13 -8 10
-7 17 1 25 9 9 9 12 -1 12 -7 0 -9 5 -6 11 11 16 12 69 3 69 -5 0 -4 8 1 18 6
11 6 24 0 35 -7 12 -6 17 2 17 8 0 9 4 0 13 -8 10 -7 17 1 25 9 9 9 12 0 12
-9 0 -10 5 -3 18 6 11 6 24 0 35 -7 12 -6 17 2 17 8 0 9 4 0 13 -8 10 -7 17 1
25 9 9 9 12 0 12 -9 0 -10 5 -3 18 6 11 6 24 0 35 -7 12 -6 17 2 17 8 0 9 4 0
13 -8 10 -7 17 1 25 9 9 9 12 0 12 -9 0 -10 5 -3 18 6 11 6 24 0 35 -7 12 -6
17 2 17 8 0 9 4 0 13 -8 10 -7 17 1 25 9 9 9 12 0 12 -9 0 -10 5 -3 18 6 11 6
24 0 35 -7 12 -6 17 2 17 8 0 9 4 0 13 -8 10 -7 17 1 25 9 9 9 12 0 12 -9 0
-10 5 -3 18 6 11 6 24 0 35 -7 12 -6 17 2 17 8 0 9 4 0 13 -8 10 -7 17 1 25 9
9 9 12 0 12 -9 0 -10 5 -3 18 6 11 6 24 0 35 -7 12 -6 17 2 17 8 0 9 4 0 13
-8 10 -7 17 1 25 9 9 9 12 0 12 -9 0 -10 5 -3 18 6 11 6 24 0 35 -7 12 -6 17
2 17 8 0 9 4 0 13 -8 10 -7 17 1 25 9 9 9 12 0 12 -9 0 -10 5 -3 18 6 11 6 24
0 35 -7 12 -6 17 2 17 8 0 9 4 0 13 -8 10 -7 17 1 25 9 9 9 12 0 12 -9 0 -10
6 -4 18 9 19 8 54 -2 71 -4 6 -2 11 5 11 10 0 10 3 1 12 -7 7 -8 17 -1 30 7
12 6 18 -1 18 -8 0 -8 6 0 20 8 14 8 20 0 20 -7 0 -8 6 -1 18 6 11 6 24 0 35
-7 12 -6 17 2 17 8 0 9 4 0 13 -8 10 -7 17 1 25 9 9 9 12 0 12 -9 0 -10 5 -3
18 6 11 6 24 0 35 -7 12 -6 17 2 17 8 0 9 4 0 13 -8 10 -7 17 1 25 9 9 9 12 0
12 -9 0 -10 5 -3 18 6 11 6 24 0 35 -7 12 -6 17 2 17 8 0 9 4 0 13 -8 10 -7
17 1 25 9 9 9 12 0 12 -9 0 -10 5 -3 18 18 35 -7 48 -89 46 -41 -1 -77 -2 -80
-3 -3 0 -6 -218 -5 -483 0 -271 -3 -488 -8 -495 -6 -8 -6 -13 0 -13 10 0 10
-210 -1 -228 -4 -7 -4 -12 1 -12 4 0 8 -110 8 -245 0 -135 -1 -245 -3 -245 -7
0 -51 56 -52 65 0 6 -9 16 -20 23 -11 7 -20 18 -20 26 0 8 -7 16 -15 20 -8 3
-15 12 -15 21 0 8 -3 15 -8 15 -4 0 -28 28 -52 62 -25 34 -50 66 -55 72 -6 6
-22 27 -35 46 -31 45 -33 47 -75 95 -19 22 -35 46 -35 53 0 6 -3 12 -7 12 -5
0 -19 17 -33 37 -14 20 -35 48 -47 61 -13 14 -20 30 -16 36 3 6 3 8 -2 4 -7
-7 -45 32 -45 46 0 3 -8 14 -17 24 -20 21 -51 60 -73 93 -8 12 -22 29 -30 38
-13 14 -20 109 -10 146 1 6 1 15 0 20 -7 25 -4 617 3 622 4 2 4 9 0 16 -4 6
-7 25 -8 42 l-2 30 -81 1 c-74 0 -82 -2 -88 -20 -10 -30 -10 -86 -1 -86 5 0 5
-5 1 -12 -11 -17 -10 -68 1 -68 5 0 5 -4 -1 -10 -7 -7 -8 -29 -4 -55 4 -24 3
-50 -1 -57 -4 -7 -3 -18 3 -25 7 -9 7 -13 0 -13 -11 0 -10 -25 1 -36 3 -4 2
-15 -4 -25 -7 -13 -6 -19 1 -19 6 0 8 -5 4 -12 -10 -16 -11 -68 -1 -68 5 0 5
-5 1 -11 -11 -18 -12 -79 -2 -79 5 0 6 -5 2 -12 -7 -11 -12 -6 -64 59 -6 7
-10 17 -10 23 0 6 -4 8 -10 5 -6 -3 -10 0 -10 8 0 8 -12 26 -26 41 -15 14 -24
26 -20 26 4 0 -4 11 -18 25 -13 13 -33 38 -42 55 -10 16 -22 30 -26 30 -4 0
-8 6 -8 13 0 7 -8 20 -17 29 -26 24 -43 46 -43 55 0 5 -9 14 -20 21 -11 7 -20
19 -20 26 0 8 -4 16 -8 18 -8 3 -86 103 -107 137 -5 8 -18 23 -27 32 -10 9
-18 21 -18 27 0 6 -3 12 -7 14 -13 5 -73 86 -73 97 0 5 -3 11 -7 13 -11 4 -86
98 -79 98 3 0 -5 10 -17 23 -31 33 -57 66 -57 73 0 3 -6 11 -12 19 -29 30 -47
55 -40 55 4 0 -1 5 -10 11 -10 5 -18 14 -18 19 0 5 -13 24 -30 42 -16 18 -30
38 -30 46 0 7 -4 10 -10 7 -5 -3 -10 -1 -10 5 0 12 -60 93 -72 98 -5 2 -8 9
-8 16 0 6 -9 18 -20 26 -11 8 -20 20 -20 27 0 7 -4 13 -10 13 -5 0 -10 7 -10
16 0 8 -4 12 -10 9 -5 -3 -10 1 -10 9 0 9 -4 16 -8 16 -4 0 -16 15 -27 33 -10
17 -21 34 -25 37 -3 3 -19 23 -36 45 -16 22 -34 46 -41 53 -7 7 -20 26 -30 42
-9 17 -21 30 -25 30 -4 0 -8 5 -8 10 0 6 -11 22 -24 35 -14 14 -33 38 -42 55
-10 16 -22 30 -26 30 -4 0 -8 5 -8 10 0 6 -8 19 -17 29 -30 33 -44 51 -40 51
3 0 -11 17 -29 37 -19 20 -34 42 -34 48 0 5 -9 16 -20 23 -11 7 -20 19 -20 27
0 8 -3 15 -7 15 -5 0 -24 23 -43 50 -19 27 -38 50 -42 50 -5 0 -8 7 -8 15 0 8
-4 15 -8 15 -4 0 -15 12 -24 28 -9 15 -27 39 -40 53 -13 14 -39 48 -58 75 -19
27 -38 51 -42 52 -4 2 -8 8 -8 14 0 5 -6 15 -13 22 -6 7 -23 28 -37 46 -14 18
-31 39 -37 46 -7 7 -13 15 -13 18 0 6 -25 39 -52 68 -10 10 -15 18 -12 18 3 0
-2 7 -11 16 -9 9 -24 29 -33 43 -9 14 -22 30 -29 34 -7 4 -13 13 -13 19 0 6
-8 18 -18 27 -10 9 -26 30 -36 46 -11 17 -25 37 -33 45 -38 41 -63 76 -63 88
0 7 -4 10 -10 7 -5 -3 -10 -1 -10 4 0 11 -20 38 -52 73 -10 10 -16 18 -13 18
3 0 -6 12 -20 27 -14 15 -25 31 -25 34 0 3 -8 15 -17 27 -32 37 -47 56 -92
117 -25 33 -48 62 -53 63 -4 2 -8 8 -8 14 0 5 -6 15 -12 22 -7 7 -22 25 -33
40 -11 15 -27 36 -35 46 -8 10 -22 28 -30 40 -8 12 -23 32 -34 43 -10 12 -32
42 -49 67 -17 25 -40 54 -50 65 -10 11 -27 35 -38 53 -12 17 -24 32 -28 32 -4
0 -17 18 -30 40 -12 22 -26 40 -30 40 -4 0 -17 18 -30 40 -12 22 -27 40 -33
40 -6 0 -8 3 -5 6 3 4 -5 15 -18 26 -14 11 -25 24 -25 30 0 5 -10 22 -22 37
-13 15 -32 40 -43 55 -11 15 -32 42 -47 59 -15 18 -28 35 -28 39 0 4 -11 19
-25 33 -14 14 -22 25 -18 25 4 0 3 4 -2 8 -6 4 -26 27 -45 52 -19 25 -38 47
-42 48 -5 2 -8 10 -8 17 0 8 -6 18 -13 22 -6 4 -25 27 -41 51 -16 23 -33 42
-37 42 -5 0 -9 5 -9 11 0 6 -10 23 -23 38 -12 15 -33 42 -47 61 -14 18 -31 39
-37 46 -7 7 -13 17 -13 23 0 5 -9 16 -19 23 -11 8 -21 20 -23 27 -2 8 -12 24
-23 36 -24 28 -25 29 -100 130 -32 44 -67 88 -77 98 -10 10 -18 21 -18 25 0 6
-16 27 -60 79 -5 7 -10 17 -10 23 0 5 -4 10 -9 10 -4 0 -21 19 -37 43 -16 23
-35 46 -42 50 -7 5 -10 12 -7 18 4 5 2 9 -3 9 -5 0 -24 21 -42 48 -19 26 -36
49 -40 52 -16 15 -65 86 -62 93 1 4 -5 7 -14 7 -8 0 -12 5 -9 10 3 6 3 10 -2
10 -4 0 -21 20 -38 45 -16 24 -33 45 -37 45 -5 0 -8 6 -8 14 0 8 -3 16 -8 18
-17 7 -71 86 -64 93 4 5 2 5 -4 2 -6 -3 -17 5 -24 18 -7 14 -17 25 -22 25 -4
0 -8 5 -8 11 0 15 121 179 132 179 4 0 7 3 5 8 -2 6 86 128 103 142 3 3 17 21
30 40 13 19 29 40 35 47 20 24 31 38 55 73 13 19 31 40 40 47 8 7 11 13 5 13
-5 0 1 7 13 16 12 8 22 22 22 30 0 8 5 14 10 14 6 0 10 7 10 15 0 8 8 15 17
15 9 0 13 3 10 6 -4 4 3 15 14 25 11 9 19 20 17 22 -2 3 7 17 19 31 13 15 23
30 23 35 0 5 7 12 16 15 8 3 12 10 9 16 -3 5 -2 10 3 10 5 0 42 45 82 100 41
55 77 100 82 100 5 0 6 5 3 10 -3 6 1 13 9 16 9 3 16 12 16 19 0 7 4 15 8 17
5 2 28 30 53 63 24 33 46 62 49 65 3 3 18 23 35 45 16 22 32 42 35 45 3 3 23
30 45 60 22 30 42 57 45 60 3 3 17 21 30 40 31 45 35 50 62 82 13 15 43 54 67
87 24 34 47 61 52 61 5 0 9 5 9 11 0 11 77 116 118 162 14 15 22 27 17 27 -5
0 -2 6 6 13 17 13 149 184 149 192 0 3 8 13 18 23 9 11 26 32 37 47 11 16 26
34 33 41 6 7 12 17 12 22 0 6 4 12 9 14 12 4 111 137 111 149 0 6 4 8 9 5 5
-3 14 7 21 23 6 16 18 32 26 35 8 3 14 10 14 16 0 6 6 17 13 24 6 7 23 28 37
46 49 65 80 105 90 117 6 7 27 37 49 67 21 31 41 53 45 49 3 -3 6 1 6 9 0 9
11 26 25 39 13 13 25 29 25 36 0 6 4 13 8 15 4 2 21 21 37 43 17 22 33 44 38
50 4 5 36 48 72 95 35 47 73 95 84 106 11 12 17 25 14 28 -3 3 2 8 11 12 9 3
16 11 16 18 0 6 8 19 18 27 9 9 26 29 37 44 11 16 26 34 33 42 7 7 10 13 5 13
-4 0 -1 6 7 13 8 7 49 57 90 112 41 55 83 108 92 117 10 10 15 18 12 18 -3 0
13 22 35 49 23 27 41 53 41 59 0 6 4 12 10 14 5 2 34 37 65 78 66 90 86 116
103 135 6 7 12 18 12 24 0 6 7 11 16 11 8 0 13 4 9 9 -3 5 5 17 17 26 13 8 21
17 18 19 -3 2 13 27 35 54 22 27 47 60 55 72 8 12 20 28 25 34 6 6 37 47 70
91 33 44 63 85 67 90 5 6 16 20 26 32 9 12 26 34 37 49 11 16 28 36 38 46 9
10 17 23 17 28 0 6 5 10 10 10 6 0 10 5 10 11 0 6 6 17 13 24 27 30 68 84 68
89 -1 4 7 14 17 25 19 20 49 58 87 111 14 19 34 46 45 60 10 14 37 50 59 80
22 30 45 60 51 67 5 7 10 17 10 23 0 6 4 9 8 6 5 -3 17 9 27 26 19 34 39 60
68 90 9 10 15 18 11 18 -3 0 16 26 41 58 25 31 53 67 63 80 9 12 26 32 36 42
11 11 16 20 11 20 -4 0 1 8 11 18 11 9 25 29 33 45 8 15 21 27 28 27 8 0 11 5
8 10 -3 6 -1 10 5 10 6 0 9 4 5 9 -3 6 4 15 16 21 11 7 18 14 16 17 -3 2 2 13
11 22 34 35 58 67 65 84 3 9 11 17 17 17 5 0 10 6 10 13 0 6 16 29 35 50 18
20 31 37 27 37 -4 1 3 9 15 19 12 10 19 21 16 25 -3 3 2 8 11 12 9 3 16 10 16
15 0 8 17 31 45 63 51 55 64 106 29 106 -8 0 -14 5 -14 10 0 6 -7 10 -16 10
-8 0 -12 5 -9 10 3 6 -1 10 -9 10 -9 0 -16 3 -16 8 0 4 -10 12 -23 18 -26 11
-37 3 -77 -58 -13 -20 -29 -34 -34 -31 -5 3 -6 2 -3 -4 6 -9 -18 -45 -55 -85
-10 -10 -16 -18 -13 -18 5 0 -26 -39 -57 -72 -10 -10 -16 -18 -13 -18 5 0 -17
-28 -41 -54 -6 -6 -19 -24 -30 -41 -10 -16 -46 -64 -79 -106 -33 -41 -69 -88
-80 -103 -22 -31 -69 -93 -88 -116 -7 -8 -23 -31 -37 -50 -13 -19 -27 -37 -30
-40 -3 -3 -30 -39 -60 -80 -30 -41 -57 -77 -60 -80 -3 -3 -17 -21 -30 -40 -13
-19 -27 -37 -30 -40 -3 -3 -17 -21 -30 -40 -13 -19 -27 -37 -30 -40 -3 -3 -17
-21 -30 -40 -13 -19 -27 -37 -30 -40 -11 -10 -102 -135 -107 -147 -3 -7 -9
-10 -14 -7 -5 3 -9 -1 -9 -8 0 -7 -11 -26 -25 -43 -35 -42 -37 -45 -70 -90
-17 -22 -32 -42 -35 -45 -3 -3 -14 -18 -23 -33 -20 -31 -43 -60 -68 -87 -8 -9
-18 -24 -22 -33 -3 -9 -11 -17 -17 -17 -5 0 -10 -5 -10 -11 0 -8 -53 -83 -71
-99 -3 -3 -32 -41 -64 -85 -33 -44 -62 -82 -65 -85 -3 -3 -39 -50 -80 -105
-41 -55 -82 -108 -92 -118 -10 -10 -18 -21 -18 -26 0 -4 -8 -16 -18 -27 -9
-10 -51 -64 -92 -119 -41 -55 -79 -105 -85 -111 -5 -7 -19 -24 -30 -40 -11
-15 -25 -33 -32 -39 -7 -7 -10 -15 -7 -18 3 -3 -4 -11 -16 -17 -12 -6 -20 -14
-17 -16 3 -3 -5 -16 -17 -29 -33 -37 -47 -55 -41 -55 3 0 -3 -8 -12 -19 -10
-10 -29 -33 -43 -51 -14 -18 -33 -41 -42 -51 -10 -11 -18 -22 -19 -26 0 -5
-11 -20 -25 -35 -13 -16 -22 -28 -19 -28 3 0 -3 -8 -12 -18 -10 -10 -27 -30
-38 -46 -11 -15 -28 -37 -37 -49 -10 -12 -21 -26 -26 -32 -4 -5 -23 -31 -41
-57 -19 -27 -38 -48 -43 -48 -5 0 -7 -4 -4 -9 4 -5 3 -11 -2 -13 -8 -3 -202
-255 -202 -262 0 -4 -44 -57 -72 -87 -10 -11 -15 -19 -12 -19 3 0 -12 -21 -33
-47 -21 -27 -52 -66 -68 -88 -38 -52 -47 -63 -67 -86 -10 -10 -18 -23 -18 -28
0 -6 -10 -17 -22 -25 -12 -9 -18 -16 -13 -16 5 0 -6 -16 -25 -35 -19 -19 -31
-35 -28 -35 6 0 -18 -32 -55 -71 -9 -10 -14 -19 -11 -19 3 0 -1 -7 -8 -15 -20
-22 -30 -35 -78 -100 -25 -33 -51 -64 -58 -68 -7 -5 -10 -12 -7 -18 4 -5 2 -9
-3 -9 -5 0 -24 -21 -42 -47 -19 -27 -42 -56 -53 -65 -10 -9 -18 -19 -17 -23 1
-7 -34 -56 -62 -86 -10 -11 -18 -23 -18 -29 0 -5 -4 -10 -8 -10 -4 0 -15 -12
-24 -27 -10 -16 -27 -40 -40 -55 -13 -14 -30 -36 -38 -49 -8 -12 -23 -30 -32
-40 -9 -9 -14 -20 -10 -23 3 -3 0 -6 -6 -6 -6 0 -14 -9 -17 -20 -4 -11 -10
-18 -14 -16 -4 3 -15 -11 -26 -30 -10 -19 -22 -34 -27 -34 -5 0 -7 -4 -4 -9 3
-5 0 -11 -8 -14 -8 -3 -22 -22 -31 -41 -10 -20 -21 -34 -25 -31 -5 3 -11 -3
-14 -13 -4 -10 -14 -27 -24 -38 -9 -10 -60 -77 -112 -148 -52 -71 -103 -137
-112 -147 -10 -11 -18 -22 -18 -25 0 -3 -6 -12 -12 -19 -20 -22 -31 -36 -78
-100 -25 -33 -47 -62 -50 -65 -3 -3 -25 -32 -50 -65 -24 -33 -50 -66 -57 -73
-7 -7 -13 -16 -13 -20 0 -4 -14 -21 -30 -39 -17 -18 -30 -35 -30 -38 0 -4 -6
-13 -12 -20 -20 -22 -31 -37 -67 -87 -19 -27 -38 -48 -43 -48 -5 0 -7 -4 -3
-9 3 -6 -1 -13 -8 -18 -7 -4 -24 -24 -37 -43 -13 -19 -28 -38 -33 -41 -5 -4
-14 -15 -20 -26 -7 -11 -20 -32 -31 -47 -17 -25 -17 -27 -1 -52 17 -26 41 -57
63 -79 6 -8 12 -16 12 -20 0 -7 19 -30 43 -53 9 -9 17 -21 17 -26 0 -5 10 -17
22 -27 11 -11 17 -19 12 -19 -5 0 -4 -4 1 -8 6 -4 26 -27 45 -52 19 -25 39
-48 45 -52 5 -4 6 -8 1 -8 -5 0 1 -8 12 -19 12 -10 22 -21 22 -25 0 -7 25 -39
55 -71 11 -11 21 -25 23 -30 1 -6 11 -19 20 -30 10 -11 33 -41 51 -67 19 -27
38 -48 43 -48 5 0 7 -4 3 -9 -3 -5 5 -17 17 -25 12 -9 19 -16 15 -16 -5 0 -2
-6 5 -14 25 -26 73 -90 68 -91 -3 0 6 -13 20 -28 25 -26 31 -34 90 -112 16
-22 33 -45 37 -50 5 -6 28 -37 53 -70 25 -33 47 -62 51 -65 3 -3 25 -33 48
-67 24 -35 48 -63 52 -63 5 0 9 -6 9 -14 0 -8 10 -22 22 -30 12 -9 19 -16 15
-16 -5 0 -2 -7 5 -15 30 -33 38 -45 38 -55 0 -6 5 -8 10 -5 6 3 10 0 10 -8 0
-8 9 -22 20 -32 11 -10 17 -22 14 -27 -3 -4 -2 -7 3 -6 4 2 9 -1 10 -5 1 -4 8
-14 15 -22 19 -21 28 -32 98 -125 35 -47 68 -86 72 -88 4 -2 8 -10 8 -17 0 -7
7 -16 16 -19 8 -3 13 -10 10 -15 -4 -5 -3 -11 1 -13 9 -3 48 -51 78 -93 11
-15 28 -36 38 -47 9 -10 17 -20 17 -23 0 -5 25 -37 48 -60 6 -8 12 -18 12 -23
0 -6 4 -12 8 -14 5 -1 28 -30 53 -63 24 -33 46 -62 49 -65 3 -3 17 -21 30 -40
13 -19 31 -42 41 -50 9 -8 19 -25 23 -37 4 -13 14 -23 22 -23 8 0 14 -6 14
-13 0 -7 8 -22 18 -33 9 -10 30 -37 46 -59 17 -22 35 -43 40 -47 6 -4 8 -8 3
-8 -4 0 1 -8 10 -18 10 -11 27 -32 38 -47 11 -16 26 -34 33 -41 6 -7 12 -17
12 -22 0 -6 4 -12 8 -14 4 -1 37 -41 72 -88 68 -90 70 -92 100 -129 11 -13 20
-27 20 -30 0 -3 13 -20 28 -37 15 -18 34 -42 42 -54 8 -12 25 -34 38 -48 41
-48 47 -56 47 -62 0 -3 10 -16 23 -30 12 -13 22 -30 22 -37 0 -8 4 -11 10 -8
5 3 10 -1 10 -9 0 -8 8 -21 19 -28 10 -7 18 -16 17 -20 0 -3 8 -17 19 -30 11
-13 31 -39 45 -58 14 -19 30 -42 37 -50 6 -8 32 -41 57 -72 25 -31 46 -60 46
-65 0 -5 9 -15 20 -23 11 -8 20 -20 20 -27 0 -7 5 -13 10 -13 6 0 10 -4 10 -9
0 -6 14 -25 30 -43 17 -18 30 -38 30 -46 0 -7 4 -10 10 -7 5 3 10 0 10 -7 0
-7 14 -27 30 -45 17 -18 30 -36 30 -42 0 -5 3 -11 8 -13 4 -1 27 -30 51 -63
25 -33 48 -62 53 -63 4 -2 6 -8 2 -13 -3 -5 -1 -9 4 -9 5 0 21 -17 34 -38 14
-20 39 -53 57 -72 17 -19 31 -39 31 -43 0 -5 13 -23 30 -40 16 -18 29 -36 29
-40 0 -5 8 -16 18 -25 10 -9 34 -39 53 -67 19 -27 41 -57 50 -66 27 -28 50
-59 45 -59 -3 0 3 -9 13 -19 9 -11 26 -31 37 -46 11 -14 28 -36 38 -48 10 -12
26 -34 35 -49 9 -16 20 -28 24 -28 4 0 8 -6 8 -13 0 -7 9 -19 20 -27 11 -8 20
-20 20 -27 0 -7 5 -13 10 -13 6 0 10 -7 10 -15 0 -8 4 -15 9 -15 5 0 26 -25
46 -55 21 -30 42 -55 47 -55 5 0 6 -5 3 -10 -3 -6 -3 -10 2 -10 4 0 24 -23 43
-50 19 -27 38 -50 43 -50 4 0 7 -6 7 -14 0 -8 3 -16 8 -18 4 -1 27 -30 51 -63
25 -33 48 -61 53 -63 4 -2 8 -9 8 -15 0 -7 13 -25 28 -42 24 -27 41 -49 77
-103 6 -8 22 -28 37 -45 15 -17 25 -33 23 -36 -3 -2 4 -10 15 -18 11 -8 20
-19 20 -25 0 -6 10 -19 22 -29 11 -11 18 -19 15 -19 -4 0 1 -8 11 -18 27 -30
52 -62 52 -68 0 -3 12 -19 28 -35 15 -16 27 -32 27 -37 0 -4 10 -17 22 -28 13
-12 23 -26 23 -32 0 -6 10 -18 22 -26 12 -9 18 -16 13 -16 -5 0 3 -11 18 -25
15 -14 27 -32 27 -40 0 -8 5 -15 10 -15 6 0 15 -11 22 -25 6 -13 15 -22 19
-19 5 3 9 -1 9 -9 0 -7 8 -22 18 -33 9 -10 41 -50 69 -88 39 -52 49 -74 43
-86 -6 -11 -5 -21 2 -28 9 -9 9 -12 1 -12 -12 0 -12 -25 0 -36 3 -4 2 -15 -4
-25 -7 -13 -6 -19 1 -19 6 0 8 -5 4 -12 -11 -17 -10 -68 1 -68 5 0 5 -4 -1
-10 -7 -7 -8 -29 -4 -55 4 -24 3 -50 -1 -57 -4 -7 -3 -18 3 -25 7 -9 7 -13 0
-13 -11 0 -10 -25 1 -36 3 -4 2 -15 -4 -25 -7 -13 -6 -19 1 -19 6 0 8 -5 4
-12 -10 -16 -11 -68 -1 -68 5 0 5 -6 1 -12 -10 -16 -10 -50 -1 -65 4 -6 3 -14
-2 -17 -6 -4 -6 -18 -1 -36 5 -17 5 -30 0 -30 -9 0 -8 -19 2 -35 3 -5 0 -23
-7 -40 -7 -16 -14 -24 -14 -17 -1 7 -7 20 -13 27 -23 25 -33 39 -59 77 -14 21
-29 35 -32 31 -4 -3 -7 0 -7 9 0 8 -9 23 -20 33 -11 10 -20 22 -20 26 0 7 -26
41 -62 80 -10 10 -18 21 -18 25 0 7 -122 167 -135 176 -5 4 -10 12 -10 18 0 6
-7 15 -15 20 -8 5 -12 10 -8 10 4 0 -3 10 -15 23 -35 37 -57 67 -57 76 0 5 -3
11 -7 13 -10 4 -73 85 -73 93 0 3 -12 18 -26 33 -14 15 -32 39 -40 55 -8 15
-19 27 -24 27 -6 0 -10 4 -10 10 0 5 -9 21 -21 34 -12 13 -21 27 -20 30 0 3
-9 16 -22 29 -29 31 -57 66 -57 72 0 5 -25 37 -47 60 -7 8 -13 16 -13 19 0 7
-27 41 -60 75 -13 14 -22 27 -20 27 3 1 -6 15 -20 32 -14 17 -34 43 -45 58
-11 15 -26 33 -33 41 -7 7 -11 13 -7 13 3 0 -6 12 -20 28 -14 15 -34 39 -43
54 -9 16 -20 28 -24 28 -4 0 -8 6 -8 13 0 7 -9 19 -20 27 -11 8 -20 18 -20 22
0 8 -22 38 -52 70 -10 10 -15 18 -10 18 4 0 2 4 -4 8 -6 4 -30 34 -55 67 -24
33 -46 62 -49 65 -3 3 -25 32 -49 65 -25 33 -49 63 -55 67 -6 4 -8 8 -3 8 4 0
-1 8 -10 18 -33 35 -53 62 -53 73 0 5 -5 7 -10 4 -6 -3 -10 0 -10 7 0 12 -25
47 -63 88 -8 8 -22 29 -33 45 -10 17 -27 38 -38 47 -10 10 -16 18 -13 18 6 0
-10 22 -38 54 -6 6 -22 27 -35 46 -29 42 -40 56 -60 78 -8 10 -26 33 -40 52
-13 19 -32 44 -42 54 -10 11 -18 26 -18 33 0 8 -4 11 -10 8 -5 -3 -10 1 -10 9
0 9 -4 16 -10 16 -5 0 -10 7 -10 15 0 8 -4 15 -9 15 -5 0 -20 17 -32 37 -13
21 -30 45 -39 54 -8 9 -24 29 -35 43 -11 15 -26 33 -32 41 -7 7 -13 18 -13 23
0 6 -4 12 -8 14 -5 1 -51 59 -103 128 -52 69 -97 127 -101 128 -5 2 -8 10 -8
17 0 7 -7 16 -16 19 -9 4 -14 9 -11 12 2 3 -5 15 -17 27 -11 12 -30 35 -41 51
-20 28 -105 140 -125 163 -5 7 -10 15 -10 18 0 3 -8 14 -17 24 -21 22 -14 14
-113 146 -41 55 -85 111 -97 125 -13 14 -23 28 -23 31 0 3 -9 17 -20 30 -11
13 -23 29 -27 34 -5 6 -25 31 -46 57 -20 25 -37 50 -37 54 0 3 -10 15 -22 25
-11 11 -18 19 -15 19 4 0 -1 8 -11 18 -23 26 -42 50 -72 95 -14 20 -28 37 -32
37 -5 0 -8 5 -8 10 0 5 -8 18 -17 28 -10 10 -25 29 -33 41 -8 13 -22 31 -30
41 -8 10 -22 28 -30 41 -8 12 -23 31 -32 41 -10 10 -18 23 -18 28 0 6 -3 10
-8 10 -4 0 -18 18 -32 40 -13 22 -30 42 -38 45 -7 3 -11 9 -8 14 3 5 0 11 -7
14 -7 3 -26 24 -42 48 -17 24 -38 52 -49 62 -10 9 -16 17 -11 17 4 0 -6 15
-21 34 -48 56 -64 76 -64 81 0 4 -22 33 -45 59 -6 6 -22 27 -35 46 -14 19 -30
42 -37 50 -7 8 -26 33 -42 55 -17 22 -34 45 -39 50 -23 31 -49 65 -62 85 -8
13 -23 30 -32 39 -10 8 -18 21 -18 27 0 7 -3 14 -8 16 -4 2 -29 32 -56 68 -27
36 -53 67 -58 68 -4 2 -8 9 -8 14 0 6 -7 18 -15 27 -8 9 -51 63 -94 121 -44
58 -87 113 -95 123 -9 9 -16 19 -16 22 0 3 -9 15 -20 27 -10 13 -19 25 -18 28
1 3 -9 17 -22 31 -36 39 -69 79 -64 79 2 0 -4 9 -14 19 -19 22 -13 14 -112
146 -41 55 -83 109 -92 119 -10 11 -18 26 -18 33 0 8 -4 11 -10 8 -5 -3 -10
-1 -10 4 0 6 -6 19 -14 28 -49 61 -195 253 -191 253 2 0 -6 11 -18 23 -28 30
-73 89 -77 102 -2 6 -14 20 -27 33 -13 13 -23 26 -23 30 0 4 -16 25 -36 47
-19 22 -42 52 -50 68 -8 15 -19 27 -24 27 -6 0 -10 7 -10 15 0 8 -4 15 -8 15
-4 0 -19 18 -32 40 -14 22 -28 40 -32 40 -16 0 -7 33 17 64 14 17 29 36 33 41
29 40 99 132 107 141 6 7 19 24 30 39 67 93 158 210 166 213 5 2 9 9 9 16 0 6
12 25 27 42 16 17 35 41 43 54 22 34 64 85 73 88 4 2 7 8 7 13 0 5 8 18 17 30
35 41 48 58 68 85 11 15 26 33 33 41 7 7 11 13 8 13 -3 0 2 9 11 19 26 28 39
45 41 53 3 7 34 46 63 77 8 10 18 25 22 34 3 9 11 17 17 17 5 0 10 6 10 13 0
8 11 24 25 37 14 13 25 27 25 31 0 7 27 41 62 80 10 10 15 19 10 19 -4 0 0 6
8 13 9 7 27 28 40 47 13 19 27 37 30 40 3 3 21 26 40 53 18 26 37 47 42 47 4
0 8 7 8 15 0 9 7 18 15 21 8 4 15 11 15 16 0 6 10 22 22 37 13 15 32 40 43 55
11 16 30 40 42 54 13 14 23 28 23 33 0 4 14 21 31 38 17 17 28 31 24 31 -4 0
11 21 32 48 21 26 59 74 83 107 25 33 47 62 50 65 3 3 32 41 64 85 33 44 64
83 69 86 5 3 9 10 10 15 1 5 8 17 17 27 37 45 46 56 60 77 12 18 73 99 155
205 8 10 15 23 15 28 0 4 5 5 10 2 6 -3 10 0 10 7 0 7 10 25 23 40 12 14 29
36 37 49 8 12 22 30 32 40 9 9 14 20 11 23 -4 3 2 6 12 6 10 0 16 3 12 6 -5 6
24 50 65 99 9 11 40 52 69 90 29 39 57 75 61 80 5 6 22 28 38 50 16 22 33 45
38 50 4 6 31 42 60 80 69 92 85 113 100 130 6 7 12 18 12 24 0 6 7 11 16 11 8
0 12 5 9 10 -3 6 -1 10 4 10 6 0 11 6 11 14 0 8 4 16 8 18 4 2 40 46 80 98 89
117 113 148 130 166 7 8 10 14 5 14 -4 1 3 10 16 20 13 11 20 20 16 20 -3 0 0
6 7 13 7 8 22 26 33 41 11 16 25 33 30 40 6 6 30 38 55 71 25 33 49 63 55 67
7 5 7 8 0 8 -5 0 -3 6 6 13 8 7 75 91 147 187 73 96 140 185 150 196 9 12 26
34 36 48 11 15 28 37 38 48 10 12 18 24 18 27 0 3 13 21 28 39 29 35 45 55 92
117 16 22 33 45 38 50 4 6 19 26 32 45 14 19 37 48 52 65 16 16 28 35 28 40 0
6 9 16 20 23 11 7 20 19 20 26 0 8 3 16 8 18 4 2 30 33 57 71 27 37 52 67 57
67 4 0 8 7 8 15 0 8 4 15 8 15 5 0 17 16 28 35 10 19 21 35 25 35 3 0 23 25
44 55 20 30 41 55 46 55 5 0 9 5 9 11 0 9 38 62 75 105 6 7 19 24 30 40 11 15
28 36 38 46 9 10 15 18 12 18 -5 0 18 29 43 55 6 8 12 18 12 24 0 6 3 11 8 11
4 0 23 23 42 50 19 27 38 50 43 50 4 0 7 7 7 15 0 8 4 15 8 15 4 0 15 12 24
28 10 15 28 41 42 57 14 17 30 35 36 42 5 7 10 15 10 19 0 3 12 21 28 39 90
108 105 134 86 160 -8 10 -14 15 -14 11 0 -4 -6 -1 -14 6 -7 7 -24 20 -36 28
-12 8 -28 21 -36 28 -7 6 -14 12 -16 12 -2 0 -26 -29 -52 -65z"/>
<path d="M6209 8814 c-1 -5 -2 -670 -3 -1478 -1 -1036 2 -1473 10 -1480 11
-12 133 -14 151 -3 7 4 10 417 9 1245 l-1 1238 49 -69 c26 -38 54 -77 62 -86
7 -9 59 -74 114 -146 55 -71 109 -141 120 -155 11 -14 56 -72 99 -130 44 -58
87 -112 96 -121 8 -9 15 -21 15 -27 0 -5 4 -12 8 -14 5 -1 56 -66 115 -143 59
-77 119 -155 134 -174 16 -18 32 -41 37 -50 5 -9 12 -18 16 -21 3 -3 26 -32
51 -65 24 -33 46 -62 49 -65 7 -7 54 -69 115 -150 27 -36 52 -67 55 -70 3 -3
18 -23 35 -45 32 -44 36 -48 65 -84 11 -13 20 -27 20 -30 0 -3 16 -23 34 -44
l34 -37 21 27 c11 16 25 33 30 39 6 7 40 52 77 100 36 49 73 95 82 102 9 6 13
12 9 12 -4 0 2 10 12 23 19 21 148 187 201 257 14 19 39 50 55 70 32 38 47 58
121 155 25 33 56 74 70 90 13 17 60 77 104 135 44 58 88 115 99 128 11 12 16
22 13 22 -4 0 -2 4 3 8 6 4 30 34 55 67 24 33 50 67 57 75 34 40 63 78 63 84
0 6 25 38 53 68 9 10 17 20 17 23 -1 8 84 119 93 123 4 2 7 8 7 13 0 9 20 36
50 67 8 9 14 18 12 21 -2 3 4 8 14 9 12 3 14 0 8 -10 -5 -7 -9 -565 -10 -1240
-1 -1120 0 -1228 15 -1229 85 -3 151 -3 152 1 6 23 2 2960 -3 2960 -4 0 -24
-22 -45 -50 -20 -27 -41 -50 -45 -50 -4 0 -8 -5 -8 -11 0 -8 -119 -169 -140
-189 -3 -3 -27 -34 -55 -70 -27 -36 -53 -66 -57 -68 -5 -2 -8 -8 -8 -13 0 -8
-18 -33 -46 -63 -5 -6 -30 -38 -54 -71 -24 -33 -49 -67 -57 -75 -18 -20 -47
-59 -124 -160 -35 -47 -68 -90 -74 -96 -5 -6 -17 -21 -25 -34 -24 -35 -125
-167 -141 -183 -8 -8 -21 -24 -29 -37 -8 -12 -43 -58 -78 -103 -35 -45 -91
-118 -124 -162 -34 -44 -87 -112 -117 -151 -31 -39 -67 -86 -81 -104 -67 -89
-112 -148 -135 -175 -14 -16 -25 -33 -25 -37 0 -25 -29 5 -116 120 -54 70
-109 141 -123 158 -14 16 -37 45 -51 63 -14 19 -79 104 -145 190 -66 86 -129
168 -140 182 -92 121 -150 195 -157 197 -4 2 -8 8 -8 13 0 8 -26 42 -57 75 -7
7 -13 15 -13 18 0 5 -51 71 -109 141 -9 11 -27 36 -41 55 -13 19 -27 37 -30
40 -3 3 -38 48 -78 101 -39 52 -81 105 -92 117 -11 11 -20 24 -20 28 0 4 -7
14 -15 23 -9 9 -36 43 -61 76 -25 33 -50 67 -57 75 -7 8 -35 44 -62 80 -28 36
-52 67 -55 70 -3 3 -20 25 -38 49 -18 25 -33 41 -33 35z"/>
<path d="M4618 8725 c-2 -1 -28 -5 -58 -9 -96 -11 -116 -15 -143 -25 -15 -6
-27 -9 -27 -7 0 18 -338 -120 -385 -157 -5 -4 -42 -29 -81 -55 -93 -61 -264
-209 -264 -229 0 -3 -8 -13 -18 -22 -27 -24 -127 -160 -147 -201 -10 -19 -21
-37 -24 -40 -13 -10 -108 -223 -118 -264 -3 -12 -6 -28 -7 -36 -1 -9 -5 -20
-9 -26 -3 -6 -9 -26 -12 -45 -3 -19 -8 -41 -10 -49 -26 -91 -38 -357 -21 -460
4 -25 9 -61 12 -80 6 -47 11 -69 23 -107 5 -18 8 -33 5 -33 -3 0 0 -9 6 -21 6
-11 13 -28 15 -37 2 -9 9 -30 16 -47 6 -16 13 -36 15 -43 6 -33 111 -224 161
-296 77 -110 188 -230 274 -296 18 -14 38 -31 46 -38 7 -7 13 -10 13 -5 0 4 4
3 8 -3 44 -64 406 -227 553 -249 24 -4 46 -8 49 -10 25 -15 343 -26 395 -14
17 4 50 10 75 13 65 8 97 15 170 36 36 11 68 20 72 20 8 1 201 87 250 111 22
11 28 21 28 49 3 196 -1 853 -6 880 -9 54 -36 93 -79 115 -37 19 -60 20 -355
20 l-315 0 -2 -60 c-3 -105 -8 -101 104 -100 58 1 101 -3 105 -10 5 -7 8 -7 8
1 0 12 159 12 178 0 7 -4 12 -3 12 2 0 10 94 8 128 -2 48 -16 51 -36 49 -421
l-2 -359 -30 -15 c-16 -8 -37 -18 -45 -23 -8 -4 -19 -10 -25 -12 -5 -1 -32
-11 -60 -20 -27 -10 -57 -19 -65 -21 -8 -2 -37 -9 -65 -15 -222 -53 -535 -32
-730 48 -114 47 -333 177 -343 203 -2 5 -8 9 -13 9 -12 0 -158 146 -195 196
-16 22 -32 41 -35 44 -13 11 -92 148 -123 215 -32 66 -78 201 -91 262 -19 91
-38 353 -25 353 3 0 5 21 4 48 0 26 2 51 5 57 3 5 6 16 6 25 4 43 18 110 32
150 8 25 16 50 17 55 10 42 31 95 38 95 4 0 8 7 8 16 0 18 82 176 100 194 3 3
14 19 24 35 52 81 246 282 260 268 3 -4 6 -2 6 4 0 6 24 26 53 44 28 19 54 37
55 41 2 5 7 8 11 8 5 0 39 17 77 38 38 21 98 48 134 61 36 13 72 26 80 29 8 3
18 6 23 7 4 2 8 3 10 5 4 3 42 11 73 14 16 1 35 5 41 9 17 10 140 21 233 20
128 -2 190 -10 325 -44 28 -6 56 -16 63 -22 6 -5 12 -7 12 -4 0 8 147 -55 199
-85 22 -12 42 -20 44 -18 2 3 23 34 47 69 49 73 55 64 -75 126 -139 66 -273
108 -420 131 -39 6 -322 14 -327 9z"/>
<path d="M12663 1303 c-40 -21 -93 -83 -128 -150 -16 -32 -33 -60 -37 -63 -3
-3 -21 -38 -39 -78 -34 -76 -33 -75 -111 -75 -40 0 -58 -21 -30 -35 9 -5 32
-8 50 -6 23 2 32 -1 29 -9 -2 -7 -26 -77 -52 -157 -55 -168 -124 -320 -146
-320 -5 0 -9 -5 -9 -12 0 -18 -70 -78 -90 -78 -46 0 -29 122 33 247 42 84 76
145 88 158 17 18 9 22 -44 24 -61 1 -79 -12 -120 -89 -82 -154 -132 -227 -189
-283 -27 -26 -56 -48 -64 -48 -8 -1 -20 -2 -26 -3 -28 -5 -46 25 -43 67 8 104
89 244 212 365 98 97 163 116 213 62 17 -18 34 -28 43 -24 25 9 7 43 -39 70
-93 54 -238 19 -342 -83 -66 -65 -141 -196 -157 -273 -10 -47 -41 -96 -92
-146 -58 -55 -101 -67 -191 -53 -15 3 -45 43 -49 68 -23 118 47 292 161 406
55 55 114 76 137 49 21 -26 20 -46 -6 -102 -28 -60 -30 -67 -12 -68 21 -1 68
37 79 65 52 130 -78 203 -223 124 -73 -39 -131 -111 -195 -241 -91 -187 -156
-276 -212 -292 -28 -7 -36 -6 -53 11 -19 19 -24 67 -10 94 3 6 6 12 6 15 1 3
9 23 19 45 9 22 31 74 48 115 17 41 38 85 46 98 8 12 11 22 8 22 -4 0 0 10 8
23 8 12 16 27 17 32 1 6 5 20 10 33 5 13 9 27 9 32 0 12 -47 21 -97 18 -41 -1
-54 -10 -34 -23 15 -9 4 -51 -51 -189 -70 -174 -157 -306 -218 -327 -26 -10
-33 -9 -45 7 -16 21 -20 48 -6 40 4 -3 6 5 4 19 -7 33 26 115 118 295 43 86
79 159 79 164 0 20 -158 -42 -200 -78 -8 -8 -20 -15 -26 -17 -29 -10 -194
-164 -194 -181 0 -4 -5 -8 -10 -8 -19 0 100 206 149 258 l29 32 -24 2 c-83 6
-86 5 -116 -26 -30 -31 -148 -250 -148 -273 0 -6 -3 -13 -7 -15 -5 -1 -21 -29
-37 -62 -31 -61 -86 -125 -123 -145 -23 -11 -61 -1 -64 17 -8 54 7 115 54 226
9 21 17 42 17 47 0 5 5 9 10 9 6 0 10 4 10 9 0 24 76 164 105 196 26 27 29 35
16 37 -19 4 -119 -6 -124 -12 -2 -3 -40 -75 -83 -159 -110 -218 -193 -338
-253 -371 -29 -15 -71 -5 -72 18 -2 36 3 76 16 111 28 79 162 336 196 375 l36
41 -65 -3 c-36 -2 -72 -7 -80 -11 -15 -8 -162 -287 -162 -306 0 -17 -84 -149
-120 -188 -41 -45 -84 -64 -105 -47 -37 30 -11 116 104 345 48 97 84 178 79
181 -29 18 -224 -87 -298 -160 -11 -11 -20 -16 -20 -12 0 5 -9 -3 -20 -17 -11
-14 -36 -42 -55 -62 -19 -19 -35 -41 -35 -47 0 -6 -3 -9 -6 -5 -5 5 62 143 76
157 3 3 14 24 24 47 22 50 16 88 -17 97 -27 6 -67 -3 -67 -15 0 -5 -6 -9 -14
-9 -25 0 -276 -228 -276 -250 0 -4 -6 -10 -14 -13 -8 -3 0 20 20 55 19 33 34
62 34 65 0 7 82 127 103 151 l20 22 -24 2 c-13 0 -37 2 -54 3 -47 3 -80 -41
-185 -249 -95 -191 -155 -274 -208 -290 -56 -18 -67 44 -27 149 22 60 146 316
164 340 5 6 11 18 14 27 5 14 1 16 -24 13 -41 -5 -133 -49 -190 -90 -27 -19
-52 -35 -55 -35 -3 0 -44 -38 -90 -85 l-84 -86 61 119 c47 91 60 125 56 144
-16 62 -99 35 -218 -70 -84 -75 -169 -161 -169 -172 0 -4 -6 -10 -13 -13 -14
-5 51 126 65 131 4 2 8 9 8 15 0 13 45 81 77 117 12 13 21 25 19 27 -2 2 -25
6 -51 8 -44 5 -50 3 -80 -30 -18 -19 -75 -117 -125 -219 -120 -238 -173 -297
-256 -281 -60 11 -61 28 -5 97 46 56 109 168 118 208 11 47 7 159 -7 186 -16
31 -46 57 -70 61 -91 14 -144 -10 -240 -107 -67 -68 -132 -175 -145 -240 -14
-72 -108 -186 -173 -211 -101 -39 -168 -3 -176 95 -2 25 0 62 5 83 5 21 11 46
14 55 8 37 74 150 115 198 49 57 115 101 145 95 11 -2 23 -4 27 -4 24 -3 8
-89 -25 -135 -26 -36 -7 -53 34 -29 63 37 80 133 32 178 -15 14 -39 26 -53 27
-14 1 -34 2 -45 3 -101 8 -239 -115 -303 -270 -71 -171 -54 -288 49 -332 38
-16 176 -9 195 10 4 4 14 7 23 7 8 0 39 25 68 55 29 30 54 50 54 45 14 -111
106 -151 220 -96 l52 25 38 -20 c49 -25 90 -24 141 2 l40 21 -16 -23 c-9 -13
-16 -26 -16 -29 0 -10 92 -1 105 10 8 6 23 30 35 53 68 132 206 301 295 363
37 26 57 21 46 -9 -5 -12 -9 -25 -9 -30 -1 -4 -17 -41 -37 -82 -59 -125 -77
-178 -78 -229 0 -37 4 -52 18 -62 28 -21 31 -18 58 40 23 50 86 149 126 199
40 50 87 102 94 106 4 1 16 11 25 20 60 61 126 76 116 28 -2 -12 -8 -23 -14
-25 -6 -2 -8 -7 -5 -12 3 -4 -2 -13 -10 -20 -8 -7 -15 -17 -15 -22 0 -6 -9
-23 -20 -38 -35 -49 -62 -134 -61 -193 1 -65 45 -107 112 -107 32 0 89 28 89
43 0 4 5 5 10 2 6 -4 7 -13 1 -23 -8 -15 -5 -18 27 -16 51 2 79 12 86 32 27
73 143 239 223 319 76 76 132 114 134 91 3 -26 -3 -42 -61 -173 -68 -152 -79
-215 -44 -249 25 -25 40 -19 53 23 15 51 114 199 188 280 55 62 133 121 159
121 23 0 22 -28 -2 -71 -100 -176 -124 -272 -85 -336 16 -25 29 -33 64 -38 69
-11 115 14 181 98 16 20 32 37 35 37 3 0 6 -16 7 -35 1 -76 90 -118 166 -79
41 20 112 95 145 152 24 41 42 59 25 25 -13 -26 -8 -117 7 -146 7 -13 27 -31
44 -39 28 -13 37 -13 71 -2 21 8 45 19 52 25 10 8 14 8 14 1 0 -6 -4 -14 -10
-17 -22 -14 -8 -23 33 -21 57 3 68 11 107 81 89 159 192 285 279 340 84 52 92
24 26 -93 -60 -105 -82 -166 -80 -225 2 -67 36 -100 102 -103 63 -3 118 34
176 116 17 24 17 24 18 2 1 -12 3 -26 4 -32 1 -5 3 -15 4 -20 2 -17 51 -55 74
-58 53 -6 68 -3 101 17 40 25 88 77 113 124 17 32 17 32 21 7 6 -48 25 -95 46
-114 85 -75 243 -58 338 37 27 28 48 46 47 41 -6 -21 14 -73 34 -92 61 -57
147 -17 248 116 44 59 49 62 43 33 -10 -50 -9 -73 5 -114 19 -56 69 -77 126
-51 41 18 64 39 113 108 l42 59 0 -44 c0 -100 86 -157 182 -119 35 14 118 93
118 112 0 22 13 -2 16 -29 4 -40 36 -76 78 -91 33 -11 43 -10 83 8 45 20 69
41 107 94 27 38 48 63 41 49 -11 -22 16 -97 46 -125 26 -25 67 -36 104 -28 6
1 18 3 28 5 9 2 34 13 55 25 l37 21 40 -21 c49 -25 85 -25 135 -1 l39 19 -14
-29 -15 -28 51 3 c28 2 54 7 59 12 5 5 27 43 51 84 82 148 186 272 269 325 83
52 91 21 25 -94 -65 -113 -82 -170 -76 -254 0 -11 15 -32 32 -48 50 -46 125
-35 188 28 l25 24 23 -27 c35 -41 65 -53 130 -49 32 2 83 4 114 4 69 0 93 9
146 56 35 30 116 137 118 155 1 3 13 29 28 58 26 49 28 72 7 72 -5 0 -12 -10
-16 -23 -4 -12 -9 -24 -13 -27 -3 -3 -21 -34 -40 -70 -19 -36 -37 -67 -40 -70
-4 -3 -14 -17 -24 -32 -24 -38 -80 -79 -122 -88 -44 -10 -44 0 -1 43 76 76 90
173 42 280 -48 109 -59 166 -43 228 12 49 47 73 93 64 26 -4 34 -2 34 9 0 17
-45 33 -83 28 -36 -4 -106 -74 -134 -132 -57 -122 -139 -286 -145 -288 -5 -2
-8 -10 -8 -18 0 -8 -6 -14 -14 -14 -13 0 -65 -61 -58 -67 12 -13 -4 -57 -30
-83 -51 -51 -102 -61 -110 -22 -3 15 6 80 16 107 18 54 40 102 108 234 43 85
78 158 78 162 0 11 -40 4 -84 -14 -21 -10 -40 -17 -43 -17 -2 0 -24 -13 -48
-30 -24 -16 -48 -30 -54 -30 -6 0 -11 -3 -11 -7 0 -5 -17 -19 -37 -33 -33 -22
-56 -44 -140 -136 -13 -14 -23 -22 -23 -19 0 18 126 228 156 260 30 33 26 39
-29 41 -69 3 -85 -17 -193 -231 -101 -200 -153 -274 -207 -294 -33 -13 -83 -6
-103 14 -12 12 -10 18 13 47 15 18 30 35 33 38 22 19 75 110 96 166 77 204
-27 345 -192 262 -49 -24 -133 -101 -172 -156 -22 -31 -115 -223 -112 -231 1
-2 -2 -7 -7 -10 -5 -3 -23 -26 -40 -51 -56 -82 -109 -113 -146 -85 -35 26 -31
69 19 180 10 22 18 42 19 45 2 8 20 49 49 114 14 32 26 64 26 71 0 7 7 18 15
25 8 6 14 15 13 18 -1 4 2 20 7 36 9 34 -6 47 -50 44 -17 -1 -35 1 -41 4 -20
13 -37 -9 -31 -38 7 -33 -74 -253 -123 -339 -62 -106 -145 -174 -193 -156 -48
19 -49 63 -5 237 7 29 28 61 73 107 35 36 71 80 81 96 10 17 22 31 26 31 4 0
8 7 8 15 0 8 5 15 10 15 6 0 10 7 10 15 0 8 5 15 10 15 6 0 10 7 10 15 0 17
-1 17 63 20 77 3 94 38 19 40 -20 0 -37 5 -37 10 0 6 22 55 48 109 74 152 76
253 5 261 -15 2 -39 -4 -55 -12z m64 -95 c-6 -55 -20 -94 -71 -192 -41 -80
-41 -80 -83 -82 l-42 -2 15 37 c9 20 18 43 21 51 13 39 69 141 99 183 44 61
67 63 61 5z m-142 -319 c3 -4 -1 -12 -10 -19 -8 -7 -15 -19 -15 -26 0 -8 -4
-14 -8 -14 -4 0 -16 -13 -25 -30 -10 -16 -23 -35 -30 -42 -7 -7 -23 -28 -36
-46 -13 -18 -25 -31 -28 -28 -5 5 24 91 37 111 4 6 14 31 23 56 16 42 20 45
52 44 18 0 36 -3 40 -6z m-4728 -86 c13 -16 14 -23 16 -60 3 -58 -62 -253 -83
-253 -5 0 -10 -8 -13 -17 -3 -14 -6 -12 -11 9 -5 16 -17 29 -31 32 -67 17 -97
-56 -60 -147 6 -13 -1 -21 -31 -34 -22 -9 -45 -16 -51 -16 -37 2 -43 5 -54 25
-51 95 97 403 226 471 35 19 75 14 92 -10z m5461 4 c35 -39 17 -159 -42 -278
-34 -67 -46 -80 -46 -51 0 15 -9 26 -26 33 -56 20 -91 -20 -79 -90 4 -22 11
-43 16 -47 25 -15 -67 -64 -106 -56 -52 10 -56 104 -9 218 37 90 55 123 91
172 78 104 160 144 201 99z m909 -34 c1 -21 5 -54 8 -73 3 -19 8 -85 10 -146
3 -90 0 -117 -15 -151 -27 -61 -50 -84 -72 -72 -25 13 -50 65 -54 113 -3 21
-9 45 -15 52 -7 9 -3 27 16 65 14 29 25 57 25 62 0 13 87 187 93 187 2 0 3
-17 4 -37z m-142 -383 c4 -17 18 -44 32 -60 l25 -30 -25 0 c-38 0 -70 31 -69
68 1 58 26 72 37 22z"/>
<path d="M11126 1046 c-64 -58 -1 -146 75 -105 30 15 50 68 37 94 -6 11 -16
23 -22 27 -22 15 -66 7 -90 -16z"/>
<path d="M12800 1050 c-71 -71 10 -162 86 -97 30 26 37 74 14 101 -18 23 -76
20 -100 -4z"/>
</g>
</svg>
